<?xml version="1.0" encoding="UTF-8" standalone="no"?>
<!-- Created with Inkscape (http://www.inkscape.org/) -->

<svg
   xmlns:dc="http://purl.org/dc/elements/1.1/"
   xmlns:cc="http://creativecommons.org/ns#"
   xmlns:rdf="http://www.w3.org/1999/02/22-rdf-syntax-ns#"
   xmlns:svg="http://www.w3.org/2000/svg"
   xmlns="http://www.w3.org/2000/svg"
   xmlns:sodipodi="http://sodipodi.sourceforge.net/DTD/sodipodi-0.dtd"
   xmlns:inkscape="http://www.inkscape.org/namespaces/inkscape"
   width="297mm"
   height="210mm"
   viewBox="0 0 1052.3622 744.09448"
   id="svg2"
   version="1.1"
   inkscape:version="0.91 r13725"
   sodipodi:docname="logo-uncp-first.svg">
  <defs
     id="defs4" />
  <sodipodi:namedview
     id="base"
     pagecolor="#ffffff"
     bordercolor="#666666"
     borderopacity="1.0"
     inkscape:pageopacity="0.0"
     inkscape:pageshadow="2"
     inkscape:zoom="0.49497474"
     inkscape:cx="406.6064"
     inkscape:cy="356.08189"
     inkscape:document-units="px"
     inkscape:current-layer="layer1"
     showgrid="false"
     inkscape:snap-global="false"
     inkscape:window-width="1366"
     inkscape:window-height="706"
     inkscape:window-x="-8"
     inkscape:window-y="-8"
     inkscape:window-maximized="1"
     showguides="false" />
  <metadata
     id="metadata7">
    <rdf:RDF>
      <cc:Work
         rdf:about="">
        <dc:format>image/svg+xml</dc:format>
        <dc:type
           rdf:resource="http://purl.org/dc/dcmitype/StillImage" />
        <dc:title></dc:title>
      </cc:Work>
    </rdf:RDF>
  </metadata>
  <g
     inkscape:label="Capa 1"
     inkscape:groupmode="layer"
     id="layer1"
     transform="translate(0,-308.26772)">
    <g
       id="g4352"
       transform="translate(151.42857,134.28571)">
      <path
         style="opacity:1;fill:#feff1f;fill-opacity:1;stroke:#000000;stroke-width:1;stroke-linejoin:round;stroke-miterlimit:4;stroke-dasharray:none;stroke-dashoffset:0;stroke-opacity:1"
         d="m 799.50198,642.67866 c -4.44933,174.9097 -87.51822,253.3298 -431.42851,242.1429 -178.9012,-5.8194 -406.053799,20.7004 -417.005498,-197.9438 -9.9197,-198.04193 147.337499,-470.46877 422.064898,-473.21424 219.06491,-2.18921 431.97476,208.64894 426.36911,429.01514 z"
         id="path4355"
         inkscape:connector-curvature="0"
         sodipodi:nodetypes="sssss"
         inkscape:export-xdpi="90"
         inkscape:export-ydpi="90" />
      <path
         sodipodi:nodetypes="sssss"
         inkscape:connector-curvature="0"
         id="path4357"
         d="m 791.86064,641.00556 c -4.36922,171.7603 -85.94239,248.7684 -423.66037,237.7829 -175.6799,-5.7146 -398.742499,20.3277 -409.496999,-194.3796 C -51.037828,489.93279 103.38777,222.41119 373.16867,219.71515 588.2891,217.56536 797.36536,424.60722 791.86064,641.00556 Z"
         style="opacity:1;fill:#3e3e3c;fill-opacity:1;stroke:none;stroke-width:0.98199427;stroke-linejoin:round;stroke-miterlimit:4;stroke-dasharray:none;stroke-dashoffset:0;stroke-opacity:1"
         inkscape:export-xdpi="90"
         inkscape:export-ydpi="90" />
      <path
         style="opacity:1;fill:#ffff00;fill-opacity:1;stroke:none;stroke-width:0.7490164;stroke-linejoin:round;stroke-miterlimit:4;stroke-dasharray:none;stroke-dashoffset:0;stroke-opacity:1"
         d="m 692.69765,626.06556 c -3.33263,131.0101 -65.55258,189.7481 -323.14708,181.3689 -133.9999,-4.3587 -304.140899,15.505 -312.343899,-148.263 -7.43,-148.3367 110.358199,-352.38886 316.133599,-354.44526 164.08314,-1.63976 323.55611,156.28148 319.35738,321.33936 z"
         id="path4359"
         inkscape:connector-curvature="0"
         sodipodi:nodetypes="sssss"
         inkscape:export-xdpi="90"
         inkscape:export-ydpi="90" />
      <path
         sodipodi:nodetypes="sssss"
         inkscape:connector-curvature="0"
         id="path4361"
         d="m 684.59278,624.29096 c -3.24765,127.6697 -63.88116,184.91 -314.90761,176.7444 -130.5833,-4.2475 -296.386199,15.1097 -304.379999,-144.4826 -7.2406,-144.55451 107.544299,-343.40388 308.072999,-345.40785 159.89946,-1.59795 315.30629,152.29672 311.21461,313.14605 z"
         style="opacity:1;fill:#219d5e;fill-opacity:1;stroke:none;stroke-width:0.72991848;stroke-linejoin:round;stroke-miterlimit:4;stroke-dasharray:none;stroke-dashoffset:0;stroke-opacity:1"
         inkscape:export-xdpi="90"
         inkscape:export-ydpi="90" />
      <g
         style="font-style:normal;font-variant:normal;font-weight:bold;font-stretch:normal;font-size:56.25px;line-height:125%;font-family:Verdana;-inkscape-font-specification:'Verdana, Bold';text-align:start;letter-spacing:0px;word-spacing:0px;writing-mode:lr-tb;text-anchor:start;opacity:1;fill:#feff1f;fill-opacity:1;stroke:none;stroke-width:1px;stroke-linecap:butt;stroke-linejoin:miter;stroke-opacity:1"
         id="g4363"
         transform="translate(1433.3173,-479.97114)">
        <path
           d="m -1181.3923,1339.8793 -10.5469,0 0,-18.0176 -15.5731,0 0,18.0176 -10.5469,0 0,-40.8966 10.5469,0 0,14.9688 15.5731,0 0,-14.9688 10.5469,0 0,40.8966 z"
           id="path4365"
           inkscape:connector-curvature="0" />
        <path
           d="m -1135.1124,1325.0752 q 0,7.5806 -4.6143,11.618 -4.6142,4.0375 -13.5956,4.0375 -8.9813,0 -13.5955,-4.0375 -4.5868,-4.0374 -4.5868,-11.5905 l 0,-26.12 10.6018,0 0,25.5157 q 0,4.2572 1.7852,6.3446 1.7853,2.0874 5.7953,2.0874 3.9551,0 5.7679,-2.005 1.8402,-2.005 1.8402,-6.427 l 0,-25.5157 10.6018,0 0,26.0925 z"
           id="path4367"
           inkscape:connector-curvature="0" />
        <path
           d="m -1087.4318,1339.8793 -10.9039,0 -2.829,-8.2672 -15.1611,0 -2.829,8.2672 -10.6293,0 15.1062,-40.8966 12.1399,0 15.1062,40.8966 z m -16.2872,-15.7654 -5.0262,-14.6668 -5.0263,14.6668 10.0525,0 z"
           id="path4369"
           inkscape:connector-curvature="0" />
        <path
           d="m -1044.3104,1339.8793 -10.1624,0 -17.3584,-28.0701 0,28.0701 -9.6679,0 0,-40.8966 12.6068,0 14.9139,23.4283 0,-23.4283 9.668,0 0,40.8966 z"
           id="path4371"
           inkscape:connector-curvature="0" />
        <path
           d="m -1015.334,1340.6758 q -4.5593,0 -8.432,-1.3458 -3.8452,-1.3459 -6.6193,-4.0101 -2.774,-2.6641 -4.3121,-6.6467 -1.5106,-3.9825 -1.5106,-9.201 0,-4.8615 1.4557,-8.8166 1.4557,-3.955 4.2297,-6.784 2.6642,-2.7191 6.5918,-4.2023 3.9551,-1.4831 8.6243,-1.4831 2.5818,0 4.6417,0.3021 2.0874,0.2746 3.8452,0.7416 1.8402,0.5218 3.3234,1.181 1.5106,0.6317 2.6367,1.181 l 0,9.9152 -1.2085,0 q -0.769,-0.6592 -1.9501,-1.5656 -1.1535,-0.9063 -2.6367,-1.7852 -1.5106,-0.879 -3.2684,-1.4832 -1.7578,-0.6043 -3.7628,-0.6043 -2.2248,0 -4.2298,0.7142 -2.005,0.6866 -3.7079,2.3071 -1.6204,1.5655 -2.6367,4.1473 -0.9887,2.5818 -0.9887,6.2622 0,3.8452 1.0711,6.427 1.0987,2.5818 2.7466,4.065 1.6754,1.5106 3.7354,2.1698 2.0599,0.6317 4.0649,0.6317 1.9226,0 3.7903,-0.5768 1.8951,-0.5768 3.4881,-1.5655 1.3459,-0.7966 2.4994,-1.7029 1.1536,-0.9064 1.8952,-1.5656 l 1.0986,0 0,9.7779 q -1.5381,0.6866 -2.9388,1.2908 -1.4008,0.6043 -2.9389,1.0438 -2.005,0.5767 -3.7628,0.8789 -1.7578,0.3021 -4.834,0.3021 z"
           id="path4373"
           inkscape:connector-curvature="0" />
        <path
           d="m -955.26624,1339.8793 -10.90393,0 -2.82898,-8.2672 -15.16113,0 -2.82898,8.2672 -10.62927,0 15.1062,-40.8966 12.13989,0 15.1062,40.8966 z m -16.28723,-15.7654 -5.02624,-14.6668 -5.02625,14.6668 10.05249,0 z"
           id="path4375"
           inkscape:connector-curvature="0" />
        <path
           d="m -913.35339,1298.9827 -15.07874,25.0763 0,15.8203 -10.54687,0 0,-15.326 -15.32593,-25.5706 11.9751,0 8.84399,15.8203 8.54187,-15.8203 11.59058,0 z"
           id="path4377"
           inkscape:connector-curvature="0" />
        <path
           d="m -868.14465,1319.4447 q 0,9.7778 -5.60303,15.5457 -5.60303,5.7403 -15.49072,5.7403 -9.86023,0 -15.46326,-5.7403 -5.60303,-5.7679 -5.60303,-15.5457 0,-9.8602 5.60303,-15.5731 5.60303,-5.7404 15.46326,-5.7404 9.83276,0 15.46325,5.7404 5.6305,5.7129 5.6305,15.5731 z m -13.98011,10.3546 q 1.53809,-1.8677 2.27967,-4.3945 0.74157,-2.5543 0.74157,-5.9876 0,-3.6804 -0.85144,-6.2622 -0.85144,-2.5818 -2.22473,-4.1748 -1.40075,-1.6479 -3.24096,-2.3895 -1.81275,-0.7416 -3.79029,-0.7416 -2.005,0 -3.79028,0.7141 -1.75781,0.7141 -3.24097,2.3621 -1.37329,1.5381 -2.25219,4.2572 -0.85145,2.6916 -0.85145,6.2622 0,3.653 0.82398,6.2347 0.85144,2.5544 2.22473,4.1748 1.37329,1.6205 3.2135,2.3896 1.84021,0.769 3.87268,0.769 2.03247,0 3.87268,-0.769 1.84021,-0.7965 3.2135,-2.4445 z"
           id="path4379"
           inkscape:connector-curvature="0" />
      </g>
      <g
         transform="matrix(1.0132163,0,0,1.0132163,-38.564129,-470.51064)"
         inkscape:transform-center-x="492.13366"
         inkscape:transform-center-y="78.162398"
         style="font-style:normal;font-variant:normal;font-weight:normal;font-stretch:normal;font-size:55.625px;line-height:125%;font-family:'Franklin Gothic Heavy';-inkscape-font-specification:'Franklin Gothic Heavy, Normal';text-align:start;letter-spacing:0px;word-spacing:0px;writing-mode:lr-tb;text-anchor:start;opacity:1;fill:#feff1f;fill-opacity:1;stroke:none;stroke-width:1px;stroke-linecap:butt;stroke-linejoin:miter;stroke-opacity:1"
         id="g4381">
        <path
           d="m 29.184914,1131.9095 24.37893,-2.9203 q 6.930736,-0.8303 10.472367,2.9308 3.511432,3.7373 4.302901,10.3444 0.833466,6.9577 -1.571875,11.5405 -2.408571,4.5559 -8.988725,5.3442 l -24.972223,2.9914 -1.376187,-11.4883 23.650799,-2.8331 q 2.642848,-0.3166 3.723951,-1.5677 1.077873,-1.278 0.783899,-3.7321 -0.245517,-2.0495 -1.263552,-3.2406 -1.048232,-1.2148 -2.182988,-1.3251 -1.137987,-0.1372 -4.34716,0.2472 l -21.547307,2.5812 -1.06283,-8.8725 z"
           style="font-style:normal;font-variant:normal;font-weight:normal;font-stretch:normal;font-size:55.625px;line-height:125%;font-family:'Franklin Gothic Heavy';-inkscape-font-specification:'Franklin Gothic Heavy, Normal';text-align:start;writing-mode:lr-tb;text-anchor:start;fill:#feff1f;fill-opacity:1"
           id="path4383"
           inkscape:connector-curvature="0" />
        <path
           d="m 66.722909,1089.6513 -0.24182,9.2586 -16.637507,9.727 q -3.200619,1.8727 -7.759517,3.737 3.607385,-0.8024 6.105312,-0.7371 l 17.947066,0.4687 -0.241111,9.2315 -37.061641,-0.968 0.280823,-10.752 13.801202,-8.2795 q 4.112926,-2.4737 7.215781,-3.724 -4.774185,0.7447 -9.742889,0.6149 l -10.96916,-0.2865 0.24182,-9.2586 37.061641,0.968 z"
           style="font-style:normal;font-variant:normal;font-weight:normal;font-stretch:normal;font-size:55.625px;line-height:125%;font-family:'Franklin Gothic Heavy';-inkscape-font-specification:'Franklin Gothic Heavy, Normal';text-align:start;writing-mode:lr-tb;text-anchor:start;fill:#feff1f;fill-opacity:1"
           id="path4385"
           inkscape:connector-curvature="0" />
        <path
           d="m 32.088921,1067.7987 36.84186,4.1448 -1.272295,11.309 -36.84186,-4.1448 1.272295,-11.309 z"
           style="font-style:normal;font-variant:normal;font-weight:normal;font-stretch:normal;font-size:55.625px;line-height:125%;font-family:'Franklin Gothic Heavy';-inkscape-font-specification:'Franklin Gothic Heavy, Normal';text-align:start;writing-mode:lr-tb;text-anchor:start;fill:#feff1f;fill-opacity:1"
           id="path4387"
           inkscape:connector-curvature="0" />
        <path
           d="m 38.959235,1027.2509 34.366573,18.0572 -2.106078,11.4047 -38.637915,5.0729 2.180062,-11.8054 20.93197,-2.0728 q 1.871307,-0.2621 3.664535,-0.4005 l -22.100779,-11.0415 1.701632,-9.2146 z"
           style="font-style:normal;font-variant:normal;font-weight:normal;font-stretch:normal;font-size:55.625px;line-height:125%;font-family:'Franklin Gothic Heavy';-inkscape-font-specification:'Franklin Gothic Heavy, Normal';text-align:start;writing-mode:lr-tb;text-anchor:start;fill:#feff1f;fill-opacity:1"
           id="path4389"
           inkscape:connector-curvature="0" />
        <path
           d="m 75.168171,1001.4121 8.544493,2.322 -7.314891,26.9178 -35.776789,-9.7224 7.314891,-26.91773 8.256182,2.24362 -4.38751,16.14541 5.1896,1.4103 3.547046,-13.0527 7.941661,2.1582 -3.547046,13.0526 5.844853,1.5884 4.38751,-16.1455 z"
           style="font-style:normal;font-variant:normal;font-weight:normal;font-stretch:normal;font-size:55.625px;line-height:125%;font-family:'Franklin Gothic Heavy';-inkscape-font-specification:'Franklin Gothic Heavy, Normal';text-align:start;writing-mode:lr-tb;text-anchor:start;fill:#feff1f;fill-opacity:1"
           id="path4391"
           inkscape:connector-curvature="0" />
        <path
           d="m 73.719881,999.47201 1.752141,-10.59123 q 4.668303,0.24913 6.517368,-4.94518 1.439175,-4.04286 -0.710195,-4.80799 -1.125861,-0.40078 -2.076988,0.32735 -0.967607,0.69344 -2.309991,2.92563 -5.035576,8.55749 -8.804902,10.15638 -3.769326,1.59888 -7.607486,0.23258 -4.938433,-1.75798 -6.883794,-6.65971 -1.936252,-4.92731 0.56864,-11.96393 3.798327,-10.67009 13.590784,-11.04743 l -0.474006,9.83536 q -3.997389,0.13384 -5.500324,4.35582 -1.247892,3.50552 0.927066,4.27976 0.972334,0.34613 1.792046,-0.25581 0.819712,-0.60194 2.116553,-2.70618 3.562193,-5.79534 5.523898,-8.06653 1.961706,-2.27119 5.072216,-3.1532 3.084923,-0.89112 6.436916,0.30212 5.296662,1.8855 7.067219,7.35926 1.744969,5.46465 -0.741706,12.45011 -4.54524,12.76831 -16.255455,11.97282 z"
           style="font-style:normal;font-variant:normal;font-weight:normal;font-stretch:normal;font-size:55.625px;line-height:125%;font-family:'Franklin Gothic Heavy';-inkscape-font-specification:'Franklin Gothic Heavy, Normal';text-align:start;writing-mode:lr-tb;text-anchor:start;fill:#feff1f;fill-opacity:1"
           id="path4393"
           inkscape:connector-curvature="0" />
        <path
           d="m 67.155334,942.82611 34.131346,14.47597 -4.443542,10.47694 -34.131343,-14.47596 4.443539,-10.47695 z"
           style="font-style:normal;font-variant:normal;font-weight:normal;font-stretch:normal;font-size:55.625px;line-height:125%;font-family:'Franklin Gothic Heavy';-inkscape-font-specification:'Franklin Gothic Heavy, Normal';text-align:start;writing-mode:lr-tb;text-anchor:start;fill:#feff1f;fill-opacity:1"
           id="path4395"
           inkscape:connector-curvature="0" />
        <path
           d="M 103.70485,951.32135 70.568662,934.6932 77.000647,921.87569 q 4.190536,-8.35081 11.225844,-10.01685 7.035308,-1.66604 13.541169,1.59868 7.42833,3.72763 9.8478,10.53324 2.40737,6.76916 -1.1619,13.88191 l -6.74871,13.44868 z m -2.51837,-13.99656 1.32782,-2.64604 q 1.26691,-2.52466 -0.32002,-5.47859 -1.57475,-2.9782 -5.798703,-5.09783 -3.617064,-1.81509 -7.018463,-1.57709 -3.389217,0.21373 -4.851032,3.1268 l -1.327815,2.64604 17.988213,9.02671 z"
           style="font-style:normal;font-variant:normal;font-weight:normal;font-stretch:normal;font-size:55.625px;line-height:125%;font-family:'Franklin Gothic Heavy';-inkscape-font-specification:'Franklin Gothic Heavy, Normal';text-align:start;writing-mode:lr-tb;text-anchor:start;fill:#feff1f;fill-opacity:1"
           id="path4397"
           inkscape:connector-curvature="0" />
        <path
           d="m 131.10863,901.23883 -7.31824,-2.04888 -5.21093,8.46556 5.05449,5.72654 -4.84075,7.86418 -25.564156,-29.19501 6.30721,-10.24657 37.651786,9.55769 -6.07941,9.87649 z m -18.41103,0.53168 3.16073,-5.13485 -10.73982,-3.07062 7.57909,8.20547 z"
           style="font-style:normal;font-variant:normal;font-weight:normal;font-stretch:normal;font-size:55.625px;line-height:125%;font-family:'Franklin Gothic Heavy';-inkscape-font-specification:'Franklin Gothic Heavy, Normal';text-align:start;writing-mode:lr-tb;text-anchor:start;fill:#feff1f;fill-opacity:1"
           id="path4399"
           inkscape:connector-curvature="0" />
        <path
           d="m 139.22455,888.4504 -29.6452,-22.26352 8.61183,-11.46716 q 5.61073,-7.47102 12.83028,-7.85752 7.21954,-0.3865 13.03999,3.98465 6.64574,4.99095 7.81453,12.11865 1.16337,7.08967 -3.61554,13.45307 l -9.03589,12.03183 z m 0.0145,-14.22131 1.77782,-2.36727 q 1.69627,-2.25868 0.66077,-5.44801 -1.01918,-3.21104 -4.79813,-6.04902 -3.236,-2.43023 -6.62541,-2.80178 -3.3731,-0.39327 -5.33033,2.2129 l -1.77782,2.36727 16.0931,12.08591 z"
           style="font-style:normal;font-variant:normal;font-weight:normal;font-stretch:normal;font-size:55.625px;line-height:125%;font-family:'Franklin Gothic Heavy';-inkscape-font-specification:'Franklin Gothic Heavy, Normal';text-align:start;writing-mode:lr-tb;text-anchor:start;fill:#feff1f;fill-opacity:1"
           id="path4401"
           inkscape:connector-curvature="0" />
        <path
           d="m 193.81236,825.54747 -6.55858,6.53954 -18.75734,-4.42533 q -3.6094,-0.85029 -8.1969,-2.64307 3.16613,1.90595 4.93046,3.67542 l 12.67635,12.71326 -6.53935,6.52036 -26.17733,-26.25356 7.61642,-7.5943 15.70498,3.51823 q 4.68463,1.04391 7.79412,2.27758 -3.97153,-2.75216 -7.48102,-6.27187 l -7.74772,-7.77028 6.55858,-6.53954 26.17733,26.25356 z"
           style="font-style:normal;font-variant:normal;font-weight:normal;font-stretch:normal;font-size:55.625px;line-height:125%;font-family:'Franklin Gothic Heavy';-inkscape-font-specification:'Franklin Gothic Heavy, Normal';text-align:start;writing-mode:lr-tb;text-anchor:start;fill:#feff1f;fill-opacity:1"
           id="path4403"
           inkscape:connector-curvature="0" />
        <path
           d="m 214.6351,808.50049 -6.19858,-4.39684 -7.76057,6.21233 2.82719,7.09564 -7.20927,5.77102 -14.22097,-36.10594 9.39326,-7.5193 32.22293,21.69537 -9.05399,7.24772 z m -17.51181,-5.70834 4.70723,-3.76814 -9.07516,-6.51261 4.36793,10.28075 z"
           style="font-style:normal;font-variant:normal;font-weight:normal;font-stretch:normal;font-size:55.625px;line-height:125%;font-family:'Franklin Gothic Heavy';-inkscape-font-specification:'Franklin Gothic Heavy, Normal';text-align:start;writing-mode:lr-tb;text-anchor:start;fill:#feff1f;fill-opacity:1"
           id="path4405"
           inkscape:connector-curvature="0" />
        <path
           d="m 235.37879,777.09074 9.11541,-5.05094 q 3.03672,6.14751 1.34324,11.53528 -1.67056,5.37321 -6.96633,8.73763 -6.37326,4.04895 -12.97338,2.32122 -6.60013,-1.72773 -11.31905,-9.15556 -4.67523,-7.35905 -3.83054,-14.23482 0.8447,-6.87576 7.49306,-11.09949 6.21279,-3.947 11.72165,-2.62005 5.5318,1.31238 9.57939,6.72115 l -8.65797,6.17618 q -1.99535,-3.14078 -4.09883,-3.7673 -2.08056,-0.64109 -3.70826,0.39299 -4.53923,2.88379 1.25747,12.00809 3.2479,5.11237 5.58226,6.20361 2.35729,1.07667 4.48935,-0.27784 3.80561,-2.41771 0.97253,-7.89015 z"
           style="font-style:normal;font-variant:normal;font-weight:normal;font-stretch:normal;font-size:55.625px;line-height:125%;font-family:'Franklin Gothic Heavy';-inkscape-font-specification:'Franklin Gothic Heavy, Normal';text-align:start;writing-mode:lr-tb;text-anchor:start;fill:#feff1f;fill-opacity:1"
           id="path4407"
           inkscape:connector-curvature="0" />
        <path
           d="m 248.52314,743.61176 17.16494,32.86133 -10.0871,5.26894 -17.16494,-32.86133 10.0871,-5.26894 z"
           style="font-style:normal;font-variant:normal;font-weight:normal;font-stretch:normal;font-size:55.625px;line-height:125%;font-family:'Franklin Gothic Heavy';-inkscape-font-specification:'Franklin Gothic Heavy, Normal';text-align:start;writing-mode:lr-tb;text-anchor:start;fill:#feff1f;fill-opacity:1"
           id="path4409"
           inkscape:connector-curvature="0" />
        <path
           d="m 286.38022,767.77159 q -7.23765,2.96718 -13.77927,0.0423 -6.51648,-2.93519 -9.81334,-10.97703 -3.15263,-7.69001 -0.85525,-14.4734 2.31222,-6.81882 10.05249,-9.99205 7.16226,-2.93627 13.59758,-0.0559 6.46044,2.87009 9.69549,10.76115 3.34838,8.1675 0.81904,14.95791 -2.52934,6.79042 -9.71674,9.73699 z m -3.24409,-7.76993 q 2.66386,-1.09208 2.87202,-3.87804 0.223,-2.82138 -2.31147,-9.00355 -3.66776,-8.94655 -8.46773,-6.97873 -5.17694,2.12235 -0.99404,12.32544 3.92533,9.57482 8.90122,7.53488 z"
           style="font-style:normal;font-variant:normal;font-weight:normal;font-stretch:normal;font-size:55.625px;line-height:125%;font-family:'Franklin Gothic Heavy';-inkscape-font-specification:'Franklin Gothic Heavy, Normal';text-align:start;writing-mode:lr-tb;text-anchor:start;fill:#feff1f;fill-opacity:1"
           id="path4411"
           inkscape:connector-curvature="0" />
        <path
           d="m 337.69782,750.8318 -8.93937,2.42243 -14.08813,-13.15089 q -2.71154,-2.52948 -5.80449,-6.36262 1.80281,3.22597 2.45637,5.63777 l 4.69567,17.32823 -8.91316,2.41532 -9.69681,-35.78371 10.38121,-2.81314 11.88837,10.84855 q 3.54892,3.23119 5.6362,5.84541 -2.08206,-4.36033 -3.38207,-9.1577 l -2.86998,-10.59093 8.93938,-2.42243 9.69681,35.78371 z"
           style="font-style:normal;font-variant:normal;font-weight:normal;font-stretch:normal;font-size:55.625px;line-height:125%;font-family:'Franklin Gothic Heavy';-inkscape-font-specification:'Franklin Gothic Heavy, Normal';text-align:start;writing-mode:lr-tb;text-anchor:start;fill:#feff1f;fill-opacity:1"
           id="path4413"
           inkscape:connector-curvature="0" />
        <path
           d="m 364.27196,746.55784 -3.1566,-6.91306 -9.82984,1.48111 -1.11374,7.5565 -9.13154,1.37589 5.81003,-38.36819 11.89787,-1.79272 16.99196,34.93251 -11.46814,1.72796 z m -12.28549,-13.7228 5.96236,-0.89838 -4.5837,-10.18637 -1.37866,11.08475 z"
           style="font-style:normal;font-variant:normal;font-weight:normal;font-stretch:normal;font-size:55.625px;line-height:125%;font-family:'Franklin Gothic Heavy';-inkscape-font-specification:'Franklin Gothic Heavy, Normal';text-align:start;writing-mode:lr-tb;text-anchor:start;fill:#feff1f;fill-opacity:1"
           id="path4415"
           inkscape:connector-curvature="0" />
        <path
           d="m 404.72959,734.31593 0.47853,9.08622 -25.95676,1.36701 -1.94982,-37.02297 11.36456,-0.59851 1.47129,27.93675 14.5922,-0.7685 z"
           style="font-style:normal;font-variant:normal;font-weight:normal;font-stretch:normal;font-size:55.625px;line-height:125%;font-family:'Franklin Gothic Heavy';-inkscape-font-specification:'Franklin Gothic Heavy, Normal';text-align:start;writing-mode:lr-tb;text-anchor:start;fill:#feff1f;fill-opacity:1"
           id="path4417"
           inkscape:connector-curvature="0" />
        <path
           d="m 423.14669,743.67158 3.80453,-36.87855 14.26511,1.47164 q 9.29394,0.95879 13.3453,6.94692 4.05136,5.98813 3.30439,13.22876 -0.85288,8.26728 -6.3592,12.94175 -5.47651,4.65024 -13.39257,3.83359 l -14.96756,-1.54411 z m 12.19541,-7.31558 2.94489,0.3038 q 2.80979,0.28987 5.00952,-2.24098 2.22675,-2.52807 2.71172,-7.22907 0.4153,-4.02557 -1.01279,-7.12181 -1.40107,-3.09346 -4.64314,-3.42792 l -2.94488,-0.30381 -2.06532,20.01979 z"
           style="font-style:normal;font-variant:normal;font-weight:normal;font-stretch:normal;font-size:55.625px;line-height:125%;font-family:'Franklin Gothic Heavy';-inkscape-font-specification:'Franklin Gothic Heavy, Normal';text-align:start;writing-mode:lr-tb;text-anchor:start;fill:#feff1f;fill-opacity:1"
           id="path4419"
           inkscape:connector-curvature="0" />
        <path
           d="m 489.85285,745.45027 -1.90698,8.64658 -27.23937,-6.00756 7.98473,-36.20423 27.23937,6.00756 -1.84263,8.35482 -16.33832,-3.60336 -1.15822,5.2516 13.20857,2.91311 -1.77243,8.03654 -13.20858,-2.91311 -1.30446,5.91469 16.33832,3.60336 z"
           style="font-style:normal;font-variant:normal;font-weight:normal;font-stretch:normal;font-size:55.625px;line-height:125%;font-family:'Franklin Gothic Heavy';-inkscape-font-specification:'Franklin Gothic Heavy, Normal';text-align:start;writing-mode:lr-tb;text-anchor:start;fill:#feff1f;fill-opacity:1"
           id="path4421"
           inkscape:connector-curvature="0" />
        <path
           d="m 519.77692,754.85546 -2.82182,8.65019 -24.71114,-8.06113 11.49786,-35.2463 10.81919,3.52938 -8.67604,26.59611 13.89195,4.53175 z"
           style="font-style:normal;font-variant:normal;font-weight:normal;font-stretch:normal;font-size:55.625px;line-height:125%;font-family:'Franklin Gothic Heavy';-inkscape-font-specification:'Franklin Gothic Heavy, Normal';text-align:start;writing-mode:lr-tb;text-anchor:start;fill:#feff1f;fill-opacity:1"
           id="path4423"
           inkscape:connector-curvature="0" />
        <path
           d="m 558.09893,766.52134 9.071,5.13028 q -3.65316,5.80242 -9.13142,7.17526 -5.45385,1.38477 -11.09036,-1.37098 -6.78333,-3.31645 -8.76075,-9.84612 -1.97742,-6.52966 1.8878,-14.43542 3.82942,-7.83255 10.13245,-10.70683 6.30302,-2.87429 13.37916,0.58532 6.61253,3.23294 8.36115,8.62282 1.77302,5.4018 -0.72194,11.67978 l -9.79111,-4.15209 q 1.63437,-3.34287 1.06885,-5.46357 -0.54111,-2.10877 -2.27354,-2.95578 -4.8313,-2.36208 -9.57931,7.34931 -2.66032,5.44131 -2.37027,8.00176 0.31445,2.57238 2.58369,3.68185 4.05048,1.98032 7.2346,-3.29559 z"
           style="font-style:normal;font-variant:normal;font-weight:normal;font-stretch:normal;font-size:55.625px;line-height:125%;font-family:'Franklin Gothic Heavy';-inkscape-font-specification:'Franklin Gothic Heavy, Normal';text-align:start;writing-mode:lr-tb;text-anchor:start;fill:#feff1f;fill-opacity:1"
           id="path4425"
           inkscape:connector-curvature="0" />
        <path
           d="m 593.22194,793.05744 -4.63639,7.54346 -23.76421,-14.60605 19.4131,-31.58534 23.76421,14.60604 -4.47995,7.28893 -14.25389,-8.76078 -2.81597,4.58161 11.52344,7.08258 -4.30928,7.01125 -11.52344,-7.08258 -3.17152,5.1601 14.2539,8.76078 z"
           style="font-style:normal;font-variant:normal;font-weight:normal;font-stretch:normal;font-size:55.625px;line-height:125%;font-family:'Franklin Gothic Heavy';-inkscape-font-specification:'Franklin Gothic Heavy, Normal';text-align:start;writing-mode:lr-tb;text-anchor:start;fill:#feff1f;fill-opacity:1"
           id="path4427"
           inkscape:connector-curvature="0" />
        <path
           d="m 617.5878,822.25542 -7.38331,-5.59172 1.79016,-19.18896 q 0.34323,-3.69228 1.48471,-8.48356 -1.45002,3.39919 -2.95864,5.39117 l -10.83907,14.31193 -7.36166,-5.57532 22.38326,-29.55489 8.57416,6.4936 -1.31367,16.04053 q -0.38637,4.78395 -1.1784,8.03412 2.17679,-4.31383 5.17762,-8.27613 l 6.62479,-8.74738 7.38331,5.59171 -22.38326,29.5549 z"
           style="font-style:normal;font-variant:normal;font-weight:normal;font-stretch:normal;font-size:55.625px;line-height:125%;font-family:'Franklin Gothic Heavy';-inkscape-font-specification:'Franklin Gothic Heavy, Normal';text-align:start;writing-mode:lr-tb;text-anchor:start;fill:#feff1f;fill-opacity:1"
           id="path4429"
           inkscape:connector-curvature="0" />
        <path
           d="m 652.59046,815.85801 -18.89257,20.9261 -8.00353,-7.22577 18.89258,-20.9261 -5.70529,-5.15087 5.95171,-6.59233 19.4141,17.52751 -5.95171,6.59233 -5.70529,-5.15087 z"
           style="font-style:normal;font-variant:normal;font-weight:normal;font-stretch:normal;font-size:55.625px;line-height:125%;font-family:'Franklin Gothic Heavy';-inkscape-font-specification:'Franklin Gothic Heavy, Normal';text-align:start;writing-mode:lr-tb;text-anchor:start;fill:#feff1f;fill-opacity:1"
           id="path4431"
           inkscape:connector-curvature="0" />
        <path
           d="m 664.35441,868.25746 -8.62454,-9.22641 6.66646,-13.63025 -2.44826,-2.61911 -10.35739,9.68174 -7.77136,-8.31369 27.08398,-25.31719 13.22429,14.14716 q 4.37719,4.68265 4.58592,9.32084 0.24711,4.63948 -3.34424,7.99656 -2.34133,2.18859 -5.0372,2.924 -2.67603,0.71686 -6.75303,-0.90026 l -7.22463,15.93661 z m 1.38745,-30.89161 3.31998,3.55167 q 1.46525,1.5675 3.0103,1.90784 1.54505,0.34034 2.81492,-0.84669 2.59927,-2.42971 -0.38686,-5.62423 l -3.57965,-3.82946 -5.17869,4.84087 z"
           style="font-style:normal;font-variant:normal;font-weight:normal;font-stretch:normal;font-size:55.625px;line-height:125%;font-family:'Franklin Gothic Heavy';-inkscape-font-specification:'Franklin Gothic Heavy, Normal';text-align:start;writing-mode:lr-tb;text-anchor:start;fill:#feff1f;fill-opacity:1"
           id="path4433"
           inkscape:connector-curvature="0" />
        <path
           d="m 676.76679,885.15503 q -4.7424,-6.22073 -3.61377,-13.29702 1.1451,-7.05469 8.05702,-12.32401 6.60954,-5.0388 13.75662,-4.5789 7.18515,0.46504 12.25688,7.11777 4.69299,6.15593 3.57976,13.11802 -1.09676,6.98369 -7.87909,12.15422 -7.01993,5.35165 -14.23394,4.66956 -7.21402,-0.6821 -11.92348,-6.85964 z m 6.66299,-5.14785 q 1.74547,2.28957 4.49011,1.76823 2.78271,-0.51621 8.09626,-4.567 7.68952,-5.86213 4.54439,-9.98768 -3.39213,-4.44956 -12.16164,2.2359 -8.22951,6.27379 -4.96912,10.55055 z"
           style="font-style:normal;font-variant:normal;font-weight:normal;font-stretch:normal;font-size:55.625px;line-height:125%;font-family:'Franklin Gothic Heavy';-inkscape-font-specification:'Franklin Gothic Heavy, Normal';text-align:start;writing-mode:lr-tb;text-anchor:start;fill:#feff1f;fill-opacity:1"
           id="path4435"
           inkscape:connector-curvature="0" />
        <path
           d="m 698.12676,914.55064 32.31537,-18.17195 7.02914,12.50001 q 4.5796,8.14395 2.02653,14.90805 -2.55306,6.76411 -8.89776,10.33193 -7.24432,4.07371 -14.23933,2.2737 -6.95802,-1.78965 -10.85867,-8.72621 l -7.37528,-13.11553 z m 13.01177,5.7393 1.4511,2.58049 q 1.38453,2.46212 4.72083,2.79841 3.34962,0.35995 7.46894,-1.95647 3.52747,-1.9836 5.23227,-4.93654 1.71812,-2.92926 0.12058,-5.77017 l -1.45109,-2.58049 -17.54263,9.86477 z"
           style="font-style:normal;font-variant:normal;font-weight:normal;font-stretch:normal;font-size:55.625px;line-height:125%;font-family:'Franklin Gothic Heavy';-inkscape-font-specification:'Franklin Gothic Heavy, Normal';text-align:start;writing-mode:lr-tb;text-anchor:start;fill:#feff1f;fill-opacity:1"
           id="path4437"
           inkscape:connector-curvature="0" />
        <path
           d="m 735.62031,969.69194 -8.10512,3.56468 -11.22984,-25.5336 33.93707,-14.92574 11.22984,25.5336 -7.83163,3.4444 -6.73572,-15.31519 -4.92274,2.16506 5.44544,12.38143 -7.53329,3.31319 -5.44543,-12.38144 -5.5443,2.43842 6.73572,15.31519 z"
           style="font-style:normal;font-variant:normal;font-weight:normal;font-stretch:normal;font-size:55.625px;line-height:125%;font-family:'Franklin Gothic Heavy';-inkscape-font-specification:'Franklin Gothic Heavy, Normal';text-align:start;writing-mode:lr-tb;text-anchor:start;fill:#feff1f;fill-opacity:1"
           id="path4439"
           inkscape:connector-curvature="0" />
        <path
           d="m 745.90104,999.25568 -8.62769,2.88982 -8.25553,-24.64684 35.15464,-11.77512 3.61449,10.79106 -26.52695,8.88526 4.64104,13.85582 z"
           style="font-style:normal;font-variant:normal;font-weight:normal;font-stretch:normal;font-size:55.625px;line-height:125%;font-family:'Franklin Gothic Heavy';-inkscape-font-specification:'Franklin Gothic Heavy, Normal';text-align:start;writing-mode:lr-tb;text-anchor:start;fill:#feff1f;fill-opacity:1"
           id="path4441"
           inkscape:connector-curvature="0" />
        <path
           d="m 757.09226,1028.4914 -13.2613,2.3715 -2.03202,-11.363 36.49533,-6.5264 2.78745,15.5874 q 1.0423,5.8286 0.24575,9.0889 -0.79177,3.287 -3.23007,5.5441 -2.43352,2.2838 -5.85579,2.8958 -5.21362,0.9323 -9.07224,-2.1301 -3.85863,-3.0624 -4.94396,-9.1316 l -1.13315,-6.3366 z m 7.80511,-1.5613 0.66937,3.7431 q 0.88452,4.9463 4.52069,4.296 3.42227,-0.612 2.60469,-5.1839 l -0.73631,-4.1174 -7.05844,1.2622 z"
           style="font-style:normal;font-variant:normal;font-weight:normal;font-stretch:normal;font-size:55.625px;line-height:125%;font-family:'Franklin Gothic Heavy';-inkscape-font-specification:'Franklin Gothic Heavy, Normal';text-align:start;writing-mode:lr-tb;text-anchor:start;fill:#feff1f;fill-opacity:1"
           id="path4443"
           inkscape:connector-curvature="0" />
        <path
           d="m 758.23934,1082.0615 -8.83713,0.5522 -1.73969,-27.8397 37.0021,-2.3122 1.73969,27.8397 -8.53894,0.5336 -1.04348,-16.6984 -5.36734,0.3354 0.84359,13.4997 -8.21365,0.5132 -0.84359,-13.4996 -6.04503,0.3777 1.04347,16.6984 z"
           style="font-style:normal;font-variant:normal;font-weight:normal;font-stretch:normal;font-size:55.625px;line-height:125%;font-family:'Franklin Gothic Heavy';-inkscape-font-specification:'Franklin Gothic Heavy, Normal';text-align:start;writing-mode:lr-tb;text-anchor:start;fill:#feff1f;fill-opacity:1"
           id="path4445"
           inkscape:connector-curvature="0" />
        <path
           d="m 747.38221,1120.0662 0.80797,-12.6039 14.4946,-4.4869 0.22936,-3.5778 -14.14882,-0.907 0.72804,-11.357 36.99834,2.3718 -1.23889,19.3258 q -0.41007,6.3968 -3.64461,9.7276 -3.20917,3.3596 -8.11518,3.0451 -3.19839,-0.205 -5.58154,-1.6642 -2.35605,-1.4574 -3.97261,-5.5346 l -16.55666,5.6611 z m 23.44659,-20.1612 -0.31103,4.8518 q -0.13727,2.1413 0.6738,3.4996 0.81106,1.3584 2.54578,1.4696 3.55075,0.2276 3.8305,-4.1363 l 0.33535,-5.2312 -7.0744,-0.4535 z"
           style="font-style:normal;font-variant:normal;font-weight:normal;font-stretch:normal;font-size:55.625px;line-height:125%;font-family:'Franklin Gothic Heavy';-inkscape-font-specification:'Franklin Gothic Heavy, Normal';text-align:start;writing-mode:lr-tb;text-anchor:start;fill:#feff1f;fill-opacity:1"
           id="path4447"
           inkscape:connector-curvature="0" />
        <path
           d="m 776.75839,1162.3459 -24.04529,-4.9684 q -6.83588,-1.4125 -9.00065,-6.1031 -2.14366,-4.6586 -0.79713,-11.1753 1.41797,-6.8625 5.15352,-10.4449 3.73004,-3.5558 10.22014,-2.2148 l 24.63046,5.0893 -2.34131,11.3311 -23.32712,-4.82 q -2.60668,-0.5386 -4.02896,0.3046 -1.42778,0.8698 -1.92791,3.2903 -0.4177,2.0215 0.16965,3.4741 0.60845,1.4847 1.64954,1.9495 1.03559,0.4913 4.20084,1.1453 l 21.25241,4.3913 -1.80819,8.751 z m 10.75719,-17.9679 3.44644,13.3868 -5.58797,0.87 -1.78829,-13.6266 3.92982,-0.6302 z"
           style="font-style:normal;font-variant:normal;font-weight:normal;font-stretch:normal;font-size:55.625px;line-height:125%;font-family:'Franklin Gothic Heavy';-inkscape-font-specification:'Franklin Gothic Heavy, Normal';text-align:start;writing-mode:lr-tb;text-anchor:start;fill:#feff1f;fill-opacity:1"
           id="path4449"
           inkscape:connector-curvature="0" />
      </g>
      <path
         id="path4451"
         d="m 258.51117,403.78248 c -1.1334,0.0561 -2.4978,0.75137 -4.5293,2.44141 l -1.8418,3.1875 0,6.4082 c 0.1357,1.57672 -0.1116,1.38868 -1.5683,1.38868 l -30.9571,0 c -1.2782,0.0805 -1.2422,0.0581 -1.2422,-1.15235 l 0,-3.30273 c -0.086,-2.36596 -1.4903,-4.35289 -2.2617,-6.38672 -2.9969,-2.46835 -7.8398,-1.44612 -7.8398,2.54687 l 0,14.35547 c 0.4811,1.91113 1.1625,2.47812 2.9043,2.65235 l 49.9394,-0.25196 c 0.717,-0.16543 2.3298,-0.72633 2.7364,-2.96679 0.4778,-4.98687 0.6767,-8.58507 0.1816,-14.06446 -0.067,-0.74331 -0.7623,-2.17698 -1.3809,-2.66797 -1.6087,-1.27699 -2.6833,-2.25955 -4.1406,-2.1875 z m -33.7422,3.83008 c -0.8854,0 -1.3074,0.7612 -1.5976,1.59766 -0.2304,0.66393 -0.4663,1.32738 0,2.10742 0.4542,0.75996 0.7126,1.57296 1.5976,1.59766 6.4862,0.18076 12.826,0.44849 19.2813,0 0.8832,-0.0614 1.2226,-0.79562 1.5976,-1.59766 0.3284,-0.70233 0.1284,-1.40509 0,-2.10742 -0.1591,-0.87095 -0.7122,-1.59766 -1.5976,-1.59766 l -19.2813,0 z m 214.69534,8.16211 c -0.59065,-0.023 -1.24019,0.0928 -2.03906,0.30078 -5.02028,1.45122 -6.45178,3.96107 -7.37888,8.00977 -11.7448,-1.00728 -19.5972,5.72266 -18.1543,16.03125 6.6718,0.83905 16.7774,-1.40866 20.959,4.26953 1.1371,1.23016 -0.2801,1.93245 -1.0079,2.62109 -11.346,1.56822 -25.0258,-1.688 -37.6406,-8.08007 -2.2864,-4.9406 -5.836,-10.59095 -9.9062,-15.81836 -1.6327,-2.48919 -4.5251,-3.85106 -7.211,-4.52735 -6.839,-1.69379 -12.3049,0.40147 -18.3007,1.15235 -12.8815,1.37597 -13.0693,15.35568 -12.627,29.80078 0.1297,4.23575 -9.1906,16.75063 -19.7168,22.48242 -8.4325,4.59173 -18.0476,5.50929 -28.0137,8.83203 -3.2664,7.09591 2.0921,14.70566 11.6172,20.45508 0.053,10.14104 2.918,25.42259 -4.041,31.06249 -1.2908,0.4076 -7.5626,-3.5657 -19.5019,-18.66405 -4.3039,-5.4426 -5.385,-16.26355 -6.3887,-28.68946 -0.4473,-5.53766 0.077,-6.55253 -0.5977,-15.77734 -0.023,-2.12413 -1.8248,-4.29419 -4.0683,-4.29688 l -70.711,0 c -4.7537,-0.72571 -3.8354,1.8497 -3.8262,5.30079 0.078,25.18329 3.95,69.89144 29.5333,104.66014 17.3225,23.5418 51.4932,64.1076 86.6738,42.5722 -6.3448,22.8058 -14.101,25.9172 -17.8242,31.9258 -2.6905,4.3418 2.5767,7.0043 6.7578,13.793 1.8997,2.6241 1.1233,4.039 -2.6153,6.3887 -4.4794,3.1063 -9.583,6.3656 -12.3593,10.5254 -0.9284,1.3903 -4.0649,3.6225 -4.2637,7.0664 4.9402,15.9672 41.1673,17.2572 65.4687,12.8378 3.3515,-0.6095 9.0577,-2.7669 13.1504,-4.2832 4.2905,-0.6955 3.3318,-2.6046 4.4024,-5.4726 1.4979,-3.7774 4.3019,-7.3176 11.1347,-10.125 2.113,-0.76 1.7803,-4.4124 2.0645,-5.2051 l -0.7754,-4.2891 c -0.3212,-1.6472 -1.2889,-1.9592 -3.1348,-1.6015 -6.6347,1.2953 -13.3848,4.3167 -16.5507,1.3457 1.4919,-1.2099 0.2915,-1.9418 1.873,-3.6348 4.944,-5.2926 13.9963,-6.4706 18.9629,-8.2344 1.2024,-1.9763 1.0573,-11.2413 -6.4727,-17.5312 -0.857,-0.716 -2.6631,-1.5252 -4.5136,-0.2734 -11.8796,8.0353 -12.4898,9.7509 -16.0215,8.7343 -0.9626,-0.2771 -1.4199,-1.0654 -1.1445,-2.0761 0.5836,-2.1425 3.3127,-5.2621 4.8281,-7.5625 3.774,-5.729 6.5324,-9.8831 9.7949,-11.9141 6.7081,-1.8485 12.1996,0.579 17.8379,1.4766 1.1556,0.184 2.0307,-0.3479 2.8281,-0.1524 2.3054,0.5653 4.9453,4.0098 4.9453,4.0098 l 1.7481,4.5898 c 1.3962,3.6638 -1.6068,9.3633 1.6387,17.8125 1.7561,6.3391 2.9128,11.132 -1.959,18.418 -5.77,3.6389 -3.6833,13.0307 -1.1172,16.0547 10.9568,12.9121 29.2893,9.3054 47.58396,9.1992 9.48715,-0.4692 39.24012,-2.6538 42.42773,-13.1328 4.06526,-13.3641 -13.54108,-17.4684 -8.9375,-20.9414 9.56912,-3.69 3.31077,-10.3125 -2.5039,-12.9883 -7.34635,-3.7006 -29.97987,0.3953 -32.24805,-1.9297 -1.71519,-1.7581 -3.83573,-3.6411 -4.60547,-6.2578 -2.0632,-7.0139 -4.60387,-11.1208 -6.71487,-15.3672 -3.0024,-6.0395 -4.2137,-11.9944 -6.3574,-14.4883 -9.5038,-11.0565 -25.0419,-23.7039 -38.0469,-33.7968 15.8715,3.1284 33.6456,8.9663 47.08792,14.7558 7.72318,3.3263 13.05865,6.1587 18.22461,9.6719 4.16647,-0.02 7.13356,0.1231 10.42969,-1.2402 1.05165,-0.435 2.88791,-2.4307 4.15234,-2.6993 4.90291,-1.0414 9.52963,-2.571 14.4043,-6.9023 1.74432,-1.5499 6.28666,-0.4253 9.65234,-0.3398 2.90874,-0.3275 2.64051,-0.2504 1.16797,1.789 -1.40979,1.9776 -2.70806,3.9782 -3.42773,6.0938 1.04061,3.8591 1.02648,6.2627 4.30469,7.6347 3.14984,2.84 7.47396,4.2587 12.03906,4.6875 3.79098,0.3561 7.54168,1.9927 9.91601,0.6016 13.85952,-8.1199 28.42211,17.9978 -2.24414,12.4746 l -12.08984,-3.2637 c -2.31899,4.309 -2.16304,7.7924 -1.66406,11.1621 3.56844,5.0206 10.67205,10.6476 13.77734,15.9688 1.44266,3.4973 2.21286,6.9462 3.29297,10.3301 3.84779,12.0928 4.55394,21.4408 5.50976,26.6074 -2.61581,3.7245 -3.47884,7.0702 -2.20898,10.2363 0.50123,1.6602 1.04756,0.4902 1.88086,-0.3183 2.3893,-1.9748 5.3382,-1.709 8.01367,-2.5391 4.46373,-0.3587 7.14447,1.5887 6.83789,2.9883 -0.1513,0.6908 -1.04829,1.6669 -1.40234,2.7793 -0.32331,1.0158 0.0368,2.1977 -0.25,3.0117 -0.7423,2.1065 0.66969,4.7662 1.56836,5.2734 15.25517,10.7 23.76194,4.4017 24.56054,-0.6621 0.23277,-1.4759 0.65449,-2.3728 2.23829,-3.4961 4.03574,-1.2383 6.40185,0.7574 9.39843,3.1973 1.36926,1.1149 1.75122,3.2392 3.57813,4.0859 1.49362,0.6923 2.65596,-0.3664 6.03711,-0.9883 4.4307,0.024 3.25193,-3.9183 3.54883,-10.3359 -0.1573,-2.0379 1.20356,-2.8312 3.47656,-1.959 4.8636,1.9904 8.68813,6.0916 12.11133,-0.5879 3.9012,-6.0333 8.76662,-15.4652 5.69922,-26.6425 -6.7678,-32.1996 -18.35973,-64.9394 -16.91993,-93.1856 5.6973,-4.9492 10.14671,-9.0624 9.97461,-11.6172 -0.1464,-2.1726 -0.52352,-4.2914 -3.91992,-4.7988 -3.3694,-0.5034 -6.44601,1.6767 -10.29101,0.4414 -3.5828,-1.3713 -5.56358,-3.9176 -0.55079,-5.4141 2.3819,-0.4544 4.07965,-0.996 5.71875,-1.2109 1.2687,-0.1662 2.60293,0.065 3.55665,-0.5918 4.1751,-0.733 2.35898,-7.8049 -1.13282,-8.8555 -7.362,-1.312 -25.49065,3.6239 -26.33594,-0.9101 -0.01,-2.8147 2.17862,-4.8408 8.76172,-5.1972 4.43341,-0.2401 10.16516,0.2849 14.88086,-0.1231 2.5755,-0.068 2.32543,-0.8804 4.76563,-3.2715 3.5917,-6.2411 -3.67719,-7.8935 -8.08399,-5.8554 -4.5325,2.069 -10.15329,2.718 -15.14453,2.2949 -3.45005,-0.1562 -12.30855,-1.372 -3.76758,-4.586 8.2601,-1.2694 15.59247,-3.9387 24.85157,-6.873 7.1217,-4.48955 5.90494,-9.98002 5.62304,-14.88868 -0.127,-2.21232 -1.9508,-5.57415 -2.8457,-6.70508 -1.2205,-1.54243 -9.03843,-1.97943 -11.11133,1.89453 -2.7295,10.98342 -0.51231,8.57489 -8.96484,15.4043 -5.14528,-1.07698 -11.63947,-6.45454 -12.18164,-15.49609 0.0654,-3.17649 -1.86855,-5.13773 -3.60156,-5.7168 l -44.06836,0 c -2.40393,-0.42281 -2.9961,0.81421 -4.19922,2.375 -11.36995,14.74022 -23.89722,26.10412 -34.06055,26.79292 -8.71538,0.5907 -16.9823,2.0605 -24.00586,0.035 -7.56315,-2.1809 -16.95983,-4.366 -29.50979,-5.5156 -8.9956,-0.82395 -15.1445,-6.33616 -19.7207,-9.79685 -5.3238,-4.02607 25.7534,-2.51904 50.75979,-9.0918 6.0963,-4.754 14.94858,-6.06489 16.16406,-16.91992 0.62863,-7.45949 -31.38704,3.38722 -33.58789,-6.31446 -2.67714,-11.80121 36.36523,-5.80664 36.36523,-5.80664 -0.48414,-1.75277 -6.34225,-16.00833 -11.36523,-20.20312 -2.02041,-1.6873 -9.22284,-5.94604 -15.65625,-4.29297 -0.74214,-3.06585 0.15845,-4.88581 2.54688,-5.7793 1.91554,-0.71659 5.03406,-0.33376 6.88085,-1.92383 1.59397,-1.10832 -1.57819,-3.19193 -2.47656,-5.09765 -1.30405,-1.61486 -2.81356,-3.45065 -3.44336,-4.64649 -2.8231,-5.36039 -2.12263,-8.68433 -7.55859,-13.08007 -1.09219,-1.00584 -1.91598,-1.42647 -2.90039,-1.46485 z m -246.90044,14.375 c -1.5588,0 -2.8144,1.25559 -2.8144,2.81445 l 0,23.39649 c 0,1.55886 1.2556,2.8125 2.8144,2.8125 l 92.9747,0 c 1.5588,0 2.8125,-1.25364 2.8125,-2.8125 l 0,-23.39649 c 0,-1.55885 -1.2537,-2.81445 -2.8125,-2.81445 l -92.9747,0 z m 134.8243,2.13867 c -13.8513,-0.15835 -28.216,21.95379 -24.4317,41.66797 4.0701,1.98457 51.2033,-19.21923 34.6153,-36.79687 -3.1547,-3.34286 -6.6529,-4.83073 -10.1836,-4.8711 z m -121.0977,3.71485 60.2481,0 c 0.7766,0 1.4023,0.62573 1.4023,1.40234 l 0,11.65625 c 0,0.77661 -0.6257,1.40039 -1.4023,1.40039 l -60.2481,0 c -0.7766,0 -1.4004,-0.62378 -1.4004,-1.40039 l 0,-11.65625 c 0,-0.77661 0.6238,-1.40234 1.4004,-1.40234 z m 9.7344,3.99219 c -0.3957,0 -0.7149,0.31914 -0.7149,0.71484 l 0,5.93945 c 0,0.3957 0.3192,0.71289 0.7149,0.71289 l 42.209,0 c 0.3957,0 0.7148,-0.31719 0.7148,-0.71289 l 0,-5.93945 c 0,-0.3957 -0.3191,-0.71484 -0.7148,-0.71484 l -42.209,0 z m 343.61131,0.45507 -17.33984,15.77149 17.20117,0.2207 0.13867,-15.99219 z m -46.85351,0.49805 -0.36914,14.50586 16.59375,0.27734 -16.22461,-14.7832 z m 9.63672,1.43164 15.19531,15.27148 14.06055,-15.14648 -29.25586,-0.125 z m -157.00002,4.89844 a 5.3852396,4.1352396 0 0 1 5.3848,4.13476 5.3852396,4.1352396 0 0 1 -5.3848,4.13477 5.3852396,4.1352396 0 0 1 -5.3867,-4.13477 5.3852396,4.1352396 0 0 1 5.3867,-4.13476 z m 125.46681,13.04101 c -1.62624,0 -2.93554,1.30931 -2.93554,2.93555 l 0,24.4082 c 0,1.62624 1.3093,2.93555 2.93554,2.93555 l 90.19727,0 c 1.62624,0 2.93555,-1.30931 2.93555,-2.93555 l 0,-24.4082 c 0,-1.62624 -1.30931,-2.93555 -2.93555,-2.93555 l -90.19727,0 z m 18.32618,6.625 51.55664,0 c 1.00524,0 1.81445,0.80921 1.81445,1.81446 l 0,15.08789 c 0,1.00524 -0.80921,1.81445 -1.81445,1.81445 l -51.55664,0 c -1.00525,0 -1.81641,-0.80921 -1.81641,-1.81445 l 0,-15.08789 c 0,-1.00525 0.81115,-1.81446 1.81641,-1.81446 z m 10.10351,5.24024 c -0.55808,0 -1.00781,0.44973 -1.00781,1.00781 l 0,8.37695 c 0,0.55808 0.44973,1.00586 1.00781,1.00586 l 30.25195,0 c 0.55808,0 1.00782,-0.44778 1.00782,-1.00586 l 0,-8.37695 c 0,-0.55808 -0.44974,-1.00781 -1.00782,-1.00781 l -30.25195,0 z m -167.1113,6.2832 c 2.0179,0.2498 -22.9894,17.08222 -10.2676,18.83789 0.5123,10.0677 16.3902,-4.252 22.3203,-8.92773 1.7032,-1.34292 -1.7298,8.41869 -6.5176,11.33984 -9.9357,6.06204 -16.3138,6.15054 -18.0351,5.53516 -7.1826,-2.56788 -10.2972,-7.30121 -8.9278,-12.58985 2.0744,-8.01057 18.2833,-14.58456 21.4278,-14.19531 z m -115.3594,1.87305 c 1.9181,-0.12071 4.0375,1.05405 5.5371,4.28711 6.5747,25.78035 5.2534,63.39617 50.1797,95.17767 -28.3428,-4.5852 -50.0595,-27.8775 -60.3574,-94.19525 0.043,-2.81736 2.1745,-5.11434 4.6406,-5.26953 z m 307.55469,105.53708 a 5.0774136,5.2036824 0 0 1 5.07812,5.2031 5.0774136,5.2036824 0 0 1 -5.07812,5.2031 5.0774136,5.2036824 0 0 1 -5.07813,-5.2031 5.0774136,5.2036824 0 0 1 5.07813,-5.2031 z m -336.87109,14.8144 c -48.128,-0.602 -67.6492,41.8218 -76.3965,62.4981 9.3464,-2.0019 32.2413,-8.7408 38.8945,-12.4512 8.4393,-4.7064 11.8014,-10.0077 24.5352,-11.7441 17.2704,-2.3551 35.0762,9.3745 35.8301,22.1738 0.7538,12.7993 -5.2992,18.2789 -9.1817,25.4648 -4.6003,8.5146 -9.6622,19.6279 -17.4941,31.9356 107.7442,-21.3047 85.8026,-60.4429 75.3769,-75.4883 -3.0667,-4.4257 6.3262,-15.418 6.3262,-15.418 -15.4553,-8.6941 -13.4231,-6.718 -25.1367,-12.4628 -20.6063,-10.1063 -38.0209,-14.3236 -52.7539,-14.5079 z m -10.2051,45.9161 c -14.5608,-0.246 -34.0651,9.8097 -50.625,37.5039 -5.3907,9.0153 -8.0969,11.9128 -11.8164,18.5507 9.5841,-0.165 19.8611,-0.059 31.0586,-0.7714 26.8181,-1.7065 62.2329,-25.1856 50.5488,-45.3008 -3.4732,-5.9795 -10.4295,-9.8349 -19.166,-9.9824 z m 338.52345,19.4628 c 0.89253,0.061 1.8622,0.4756 2.58203,1.295 l 1.96094,2.2304 c 0.70159,0.7987 0.73287,2.6297 0.66601,3.336 -0.34901,3.6914 -4.73614,0.6549 -4.90039,0.4687 l -1.72851,-1.9609 c -0.76506,-0.8672 -1.3105,-3.6468 -0.69727,-4.5391 0.41066,-0.5975 1.22466,-0.8909 2.11719,-0.8301 z m -213.12105,7.8887 c 1.741,-0.024 4.5857,0.1513 7.0175,0.8379 3.3816,0.9548 6.5147,1.4752 7.3868,1.4512 6.2481,1.6396 17.6381,4.5176 17.5468,8.2676 -0.074,3.0532 -15.4757,2.9035 -17.6113,3.1601 0,0 -5.1001,2.4818 -7.7695,2.6582 -4.1193,0.2721 -12.9895,-1.2073 -11.4239,-2.9101 0.7846,-0.8532 7.6657,-0.1782 10.5293,-0.7383 11.6564,-2.2797 7.0231,-5.1063 -9.7714,-10.1211 -0.9262,-0.9567 0.3049,-2.1626 2.7793,-2.5254 0.2793,-0.041 0.736,-0.072 1.3164,-0.08 z m 90.6582,3.3613 c 6.9789,0.023 18.2018,1.5317 19.5351,4.9844 4.10828,10.6386 -24.6422,10.9971 -24.6426,7.3223 -3e-4,-3.6749 15.7236,-0.6538 15.5235,-4.9258 -0.2736,-5.8409 -16.5395,-3.0839 -15.9746,-6.5332 0.092,-0.5608 2.3863,-0.8581 5.5586,-0.8477 z"
         style="opacity:1;fill:#fefe19;fill-opacity:1;fill-rule:evenodd;stroke:none;stroke-width:1px;stroke-linecap:butt;stroke-linejoin:miter;stroke-opacity:1"
         inkscape:connector-curvature="0"
         inkscape:export-xdpi="90"
         inkscape:export-ydpi="90" />
    </g>
  </g>
</svg>
