<?xml version="1.0" encoding="UTF-8" standalone="no"?>
<!-- Created with Inkscape (http://www.inkscape.org/) -->

<svg
   xmlns:dc="http://purl.org/dc/elements/1.1/"
   xmlns:cc="http://creativecommons.org/ns#"
   xmlns:rdf="http://www.w3.org/1999/02/22-rdf-syntax-ns#"
   xmlns:svg="http://www.w3.org/2000/svg"
   xmlns="http://www.w3.org/2000/svg"
   xmlns:sodipodi="http://sodipodi.sourceforge.net/DTD/sodipodi-0.dtd"
   xmlns:inkscape="http://www.inkscape.org/namespaces/inkscape"
   width="800"
   height="800"
   id="svg3124"
   version="1.1"
   inkscape:version="0.91 r13725"
   sodipodi:docname="logo_uncp_finals.svg">
  <defs
     id="defs3126">
    <path
       inkscape:connector-curvature="0"
       style="fill:none;stroke:none"
       d="m 263.23237,521.18469 c 37.474,10.34592 79.37795,14.99233 122.81964,14.99233 43.44334,0 83.48789,-4.64677 118.34221,-14.99351"
       id="path3838" />
    <path
       style="fill:none;stroke:none"
       d="m 143.88919,334.11982 c -0.0308,-1.61384 -0.0463,-3.24102 -0.0463,-4.88163 0,-128.0918 106.58318,-253.253253 234.66951,-253.253253 l 0,0 0,0 c 128.08631,0 228.48754,125.161453 228.48754,253.253253 0,1.64049 -0.0185,3.26757 -0.0552,4.8813"
       id="path3061"
       inkscape:connector-curvature="0" />
    <filter
       id="filter3190"
       inkscape:label="Diffuse light"
       inkscape:menu="ABCs"
       inkscape:menu-tooltip="Basic diffuse bevel to use for building textures"
       color-interpolation-filters="sRGB">
      <feGaussianBlur
         id="feGaussianBlur3192"
         stdDeviation="6"
         in="SourceGraphic"
         result="result0" />
      <feDiffuseLighting
         id="feDiffuseLighting3194"
         diffuseConstant="1"
         surfaceScale="10"
         result="result5">
        <feDistantLight
           id="feDistantLight3196"
           elevation="25"
           azimuth="235" />
      </feDiffuseLighting>
      <feComposite
         id="feComposite3198"
         in2="SourceGraphic"
         k1="1"
         in="result5"
         result="result4"
         operator="arithmetic"
         k2="0"
         k3="0.6" />
    </filter>
    <filter
       id="filter3200"
       inkscape:label="Diffuse light"
       inkscape:menu="ABCs"
       inkscape:menu-tooltip="Basic diffuse bevel to use for building textures"
       color-interpolation-filters="sRGB">
      <feGaussianBlur
         id="feGaussianBlur3202"
         stdDeviation="6"
         in="SourceGraphic"
         result="result0" />
      <feDiffuseLighting
         id="feDiffuseLighting3204"
         diffuseConstant="1"
         surfaceScale="10"
         result="result5">
        <feDistantLight
           id="feDistantLight3206"
           elevation="25"
           azimuth="235" />
      </feDiffuseLighting>
      <feComposite
         id="feComposite3208"
         in2="SourceGraphic"
         k1="1"
         in="result5"
         result="result4"
         operator="arithmetic"
         k2="0"
         k3="0.6" />
    </filter>
    <filter
       id="filter3210"
       inkscape:label="Diffuse light"
       inkscape:menu="ABCs"
       inkscape:menu-tooltip="Basic diffuse bevel to use for building textures"
       color-interpolation-filters="sRGB">
      <feGaussianBlur
         id="feGaussianBlur3212"
         stdDeviation="6"
         in="SourceGraphic"
         result="result0" />
      <feDiffuseLighting
         id="feDiffuseLighting3214"
         diffuseConstant="1"
         surfaceScale="10"
         result="result5">
        <feDistantLight
           id="feDistantLight3216"
           elevation="25"
           azimuth="235" />
      </feDiffuseLighting>
      <feComposite
         id="feComposite3218"
         in2="SourceGraphic"
         k1="1"
         in="result5"
         result="result4"
         operator="arithmetic"
         k2="0"
         k3="0.6" />
    </filter>
    <filter
       id="filter3220"
       inkscape:label="Specular light"
       inkscape:menu="ABCs"
       inkscape:menu-tooltip="Basic specular bevel to use for building textures"
       color-interpolation-filters="sRGB">
      <feGaussianBlur
         id="feGaussianBlur3222"
         result="result0"
         in="SourceAlpha"
         stdDeviation="6" />
      <feSpecularLighting
         id="feSpecularLighting3224"
         specularExponent="25"
         specularConstant="1"
         surfaceScale="10"
         lighting-color="rgb(255,255,255)"
         result="result1"
         in="result0">
        <feDistantLight
           id="feDistantLight3226"
           azimuth="235"
           elevation="45" />
      </feSpecularLighting>
      <feComposite
         id="feComposite3228"
         in2="result1"
         k3="1"
         k2="1"
         operator="arithmetic"
         result="result4"
         in="SourceGraphic" />
      <feComposite
         id="feComposite3230"
         in2="SourceAlpha"
         operator="in"
         result="result2"
         in="result4" />
    </filter>
    <filter
       id="filter3232"
       inkscape:label="Specular light"
       inkscape:menu="ABCs"
       inkscape:menu-tooltip="Basic specular bevel to use for building textures"
       color-interpolation-filters="sRGB">
      <feGaussianBlur
         id="feGaussianBlur3234"
         result="result0"
         in="SourceAlpha"
         stdDeviation="6" />
      <feSpecularLighting
         id="feSpecularLighting3236"
         specularExponent="25"
         specularConstant="1"
         surfaceScale="10"
         lighting-color="rgb(255,255,255)"
         result="result1"
         in="result0">
        <feDistantLight
           id="feDistantLight3238"
           azimuth="235"
           elevation="45" />
      </feSpecularLighting>
      <feComposite
         id="feComposite3240"
         in2="result1"
         k3="1"
         k2="1"
         operator="arithmetic"
         result="result4"
         in="SourceGraphic" />
      <feComposite
         id="feComposite3242"
         in2="SourceAlpha"
         operator="in"
         result="result2"
         in="result4" />
    </filter>
  </defs>
  <sodipodi:namedview
     id="base"
     pagecolor="#ffffff"
     bordercolor="#666666"
     borderopacity="1.0"
     inkscape:pageopacity="0.0"
     inkscape:pageshadow="2"
     inkscape:zoom="0.49497476"
     inkscape:cx="516.5496"
     inkscape:cy="476.07641"
     inkscape:document-units="px"
     inkscape:current-layer="layer1"
     showgrid="false"
     inkscape:window-width="1366"
     inkscape:window-height="706"
     inkscape:window-x="-8"
     inkscape:window-y="-8"
     inkscape:window-maximized="1" />
  <metadata
     id="metadata3129">
    <rdf:RDF>
      <cc:Work
         rdf:about="">
        <dc:format>image/svg+xml</dc:format>
        <dc:type
           rdf:resource="http://purl.org/dc/dcmitype/StillImage" />
        <dc:title />
      </cc:Work>
    </rdf:RDF>
  </metadata>
  <g
     inkscape:label="Capa 1"
     inkscape:groupmode="layer"
     id="layer1"
     transform="translate(0,-252.36218)">
    <g
       id="g4387"
       inkscape:export-xdpi="90"
       inkscape:export-ydpi="90"
       transform="translate(-14.142135,14.142135)">
      <path
         style="fill:none;fill-opacity:1;stroke:#000000;stroke-width:8;stroke-linecap:round;stroke-linejoin:miter;stroke-miterlimit:4;stroke-dasharray:none;stroke-dashoffset:0;stroke-opacity:1"
         d="m 396.93981,442.14133 c -118.39616,0 -211.20169,115.6897 -211.20169,234.0881 0,118.3984 104.23184,161.2017 222.63025,161.2017 118.39841,0 205.4874,-42.8033 205.4874,-161.2017 0,-118.3984 -98.5198,-234.0881 -216.91596,-234.0881 z"
         id="path3248"
         inkscape:connector-curvature="0"
         sodipodi:nodetypes="sssss"
         inkscape:export-filename="C:\Documents and Settings\tinoco\Escritorio\logo_uncpxXx4.png"
         inkscape:export-xdpi="90"
         inkscape:export-ydpi="90" />
      <g
         id="text3252"
         style="font-style:normal;font-variant:normal;font-weight:bold;font-stretch:normal;font-size:39px;line-height:125%;font-family:Candara;-inkscape-font-specification:'Candara Bold';text-align:start;letter-spacing:0px;word-spacing:0px;writing-mode:lr-tb;text-anchor:start;fill:#000000;fill-opacity:1;stroke:none"
         transform="matrix(1.033336,0,0,1.033336,-12.149065,-8.0012824)">
        <path
           inkscape:connector-curvature="0"
           id="path4315"
           style="font-style:normal;font-variant:normal;font-weight:bold;font-stretch:normal;font-size:39px;line-height:125%;font-family:Candara;-inkscape-font-specification:'Candara Bold';text-align:start;writing-mode:lr-tb;text-anchor:start;fill:#000000;fill-opacity:1"
           d="m 144.37657,684.20676 q 6.38372,-0.46632 12.75039,-1.10317 12.58174,-1.25855 13.61284,9.04938 0.50986,5.09712 -2.01778,7.95273 -2.52764,2.85561 -9.74698,3.57776 -6.36667,0.63685 -12.50784,1.42339 l -0.5364,-5.3624 q 6.4292,-0.39431 12.379,-0.98947 5.21081,-0.52123 7.01087,-2.04095 1.80006,-1.51972 1.52333,-4.28619 -0.28999,-2.89911 -2.33267,-3.99616 -2.06163,-1.09516 -7.32928,-0.56824 -5.77927,0.5781 -12.29183,1.47834 l -0.51365,-5.13502 z" />
        <path
           inkscape:connector-curvature="0"
           id="path4317"
           style="font-style:normal;font-variant:normal;font-weight:bold;font-stretch:normal;font-size:39px;line-height:125%;font-family:Candara;-inkscape-font-specification:'Candara Bold';text-align:start;writing-mode:lr-tb;text-anchor:start;fill:#000000;fill-opacity:1"
           d="m 169.09527,656.20562 -0.0505,4.70334 q -0.78072,-0.008 -8.30136,5.14799 -7.92317,5.39962 -10.82571,6.13022 l -0.003,0.30467 q 4.17528,-0.43127 7.54569,-0.39508 4.70334,0.0505 11.46607,-0.14351 l -0.0503,4.6843 q -5.89991,-0.34901 -12.96445,-0.42486 -6.95028,-0.0746 -11.82806,0.15867 l 0.0607,-5.65544 q 1.00922,0.0108 8.10521,-4.61686 7.53722,-4.92766 10.21106,-5.64167 l 0.003,-0.28563 q -4.25125,0.41141 -7.62166,0.37522 -5.16035,-0.0554 -10.59014,0.15292 l 0.0511,-4.76047 q 4.71952,0.31729 11.82214,0.39355 7.15974,0.0769 12.97038,-0.12736 z" />
        <path
           inkscape:connector-curvature="0"
           id="path4319"
           style="font-style:normal;font-variant:normal;font-weight:bold;font-stretch:normal;font-size:39px;line-height:125%;font-family:Candara;-inkscape-font-specification:'Candara Bold';text-align:start;writing-mode:lr-tb;text-anchor:start;fill:#000000;fill-opacity:1"
           d="m 170.1233,645.38763 -0.47197,5.36845 q -5.85896,-0.7636 -12.89675,-1.38233 -6.92398,-0.60871 -11.80193,-0.78904 l 0.47196,-5.36846 q 4.75871,0.66688 11.75857,1.28227 7.15162,0.62873 12.94012,0.88911 z" />
        <path
           inkscape:connector-curvature="0"
           id="path4321"
           style="font-style:normal;font-variant:normal;font-weight:bold;font-stretch:normal;font-size:39px;line-height:125%;font-family:Candara;-inkscape-font-specification:'Candara Bold';text-align:start;writing-mode:lr-tb;text-anchor:start;fill:#000000;fill-opacity:1"
           d="m 149.11888,616.86528 q 1.54264,0.24211 11.58973,6.23318 10.05004,5.97225 11.55506,6.20846 l -0.81195,5.17348 q -1.44858,-0.22734 -12.90768,2.04146 -11.45614,2.24999 -12.82947,2.03445 l 0.93597,-5.96362 q 1.37332,0.21553 10.14061,-0.99147 8.76729,-1.20701 9.89605,-1.02986 l 0.0502,-0.31982 q -1.09114,-0.17124 -8.76613,-3.95879 -7.67205,-3.80636 -9.68501,-4.12229 l 0.83263,-5.30518 z" />
        <path
           inkscape:connector-curvature="0"
           id="path4323"
           style="font-style:normal;font-variant:normal;font-weight:bold;font-stretch:normal;font-size:39px;line-height:125%;font-family:Candara;-inkscape-font-specification:'Candara Bold';text-align:start;writing-mode:lr-tb;text-anchor:start;fill:#000000;fill-opacity:1"
           d="m 174.18233,600.93214 4.03232,1.1468 -3.86372,15.73824 q -5.52611,-1.61157 -12.53526,-3.3323 -6.73175,-1.65264 -11.54368,-2.57905 l 3.68664,-15.01698 4.00021,1.19774 q -1.65797,5.4755 -2.76578,9.98799 2.61605,0.44615 6.11138,1.30425 0.9489,-3.86521 1.82604,-8.31668 l 3.8652,0.9489 q -1.24734,4.28215 -2.21441,8.22134 3.75425,0.92166 7.06398,1.57733 1.24401,-5.06731 2.33708,-10.87758 z" />
        <path
           inkscape:connector-curvature="0"
           id="path4325"
           style="font-style:normal;font-variant:normal;font-weight:bold;font-stretch:normal;font-size:39px;line-height:125%;font-family:Candara;-inkscape-font-specification:'Candara Bold';text-align:start;writing-mode:lr-tb;text-anchor:start;fill:#000000;fill-opacity:1"
           d="m 185.83194,578.85847 -1.7974,5.34246 q -7.09369,-0.0559 -8.96823,0.55911 -1.87454,0.61503 -2.71251,3.10577 -0.3522,1.04684 -0.65598,2.0095 4.63856,1.56058 9.42202,2.98908 l -1.6881,5.01759 q -5.37182,-2.06847 -12.21235,-4.36987 -6.56979,-2.21031 -11.28729,-3.53626 l 1.05051,-3.12245 q 0.18217,-0.54147 0.70489,-2.27433 0.52879,-1.75091 1.02065,-3.21287 2.78718,-8.28443 8.45453,-6.37773 4.49417,1.512 4.67202,6.83589 l 0.27073,0.0911 q 1.11867,-1.65292 3.92652,-2.23523 2.7898,-0.58839 9.79999,-0.82175 z m -18.88208,1.18181 q -3.59172,-1.20838 -5.14623,3.41213 -0.5708,1.69659 -0.75532,3.08112 2.86437,0.74267 7.35854,2.25467 0.37008,-0.98054 0.60082,-1.6664 1.93099,-5.73954 -2.05781,-7.08152 z" />
        <path
           inkscape:connector-curvature="0"
           id="path4327"
           style="font-style:normal;font-variant:normal;font-weight:bold;font-stretch:normal;font-size:39px;line-height:125%;font-family:Candara;-inkscape-font-specification:'Candara Bold';text-align:start;writing-mode:lr-tb;text-anchor:start;fill:#000000;fill-opacity:1"
           d="m 187.29035,558.4124 q 6.84092,2.93969 2.61558,12.77242 -1.43601,3.34173 -3.47384,5.86522 l -3.53319,-2.5339 q 2.19775,-2.41332 3.2804,-4.93274 1.20294,-2.79935 1.18685,-4.25714 -0.0161,-1.45778 -1.29329,-2.00663 -1.3297,-0.57139 -2.7357,0.19238 -1.23336,0.65143 -3.83626,3.13936 -2.37763,2.25312 -4.35622,2.99883 -2.49638,0.93775 -5.08578,-0.17497 -3.0093,-1.29316 -3.75158,-4.24443 -0.73475,-2.96877 1.06214,-7.1503 1.47361,-3.42921 3.05092,-5.50806 l 3.60592,2.31643 q -1.87228,1.99355 -3.05267,4.74042 -1.77434,4.12904 0.43015,5.07636 1.17223,0.50373 2.32057,-0.14277 0.99074,-0.56915 3.33844,-2.8973 2.49286,-2.47304 4.58409,-3.33617 2.79163,-1.1425 5.64347,0.083 z" />
        <path
           inkscape:connector-curvature="0"
           id="path4329"
           style="font-style:normal;font-variant:normal;font-weight:bold;font-stretch:normal;font-size:39px;line-height:125%;font-family:Candara;-inkscape-font-specification:'Candara Bold';text-align:start;writing-mode:lr-tb;text-anchor:start;fill:#000000;fill-opacity:1"
           d="m 197.84828,552.49653 -2.40819,4.82117 q -5.17052,-2.85941 -11.49085,-6.01644 -6.21811,-3.10597 -10.68994,-5.06293 l 2.40819,-4.82117 q 4.18243,2.36586 10.46869,5.50587 6.42255,3.20808 11.7121,5.5735 z" />
        <path
           inkscape:connector-curvature="0"
           id="path4331"
           style="font-style:normal;font-variant:normal;font-weight:bold;font-stretch:normal;font-size:39px;line-height:125%;font-family:Candara;-inkscape-font-specification:'Candara Bold';text-align:start;writing-mode:lr-tb;text-anchor:start;fill:#000000;fill-opacity:1"
           d="m 199.38612,522.76964 q 4.66975,2.72801 6.40739,7.75701 1.73764,5.02899 -1.41302,10.42223 -1.42164,2.43353 -4.11643,6.59339 -4.84085,-3.11467 -11.07267,-6.75522 -5.98518,-3.49647 -10.33585,-5.75137 l 1.68099,-2.87749 q 0.41305,-0.70704 1.1802,-2.1335 0.76715,-1.42645 1.0169,-1.85396 3.46765,-5.93585 7.98347,-6.87056 4.52543,-0.95116 8.66902,1.46947 z m -1.91531,4.90193 q -3.15702,-1.84429 -6.38686,-1.26104 -3.24629,0.57364 -5.45559,4.35549 -0.41305,0.70704 -0.98549,2.0267 3.38462,1.75671 6.96915,3.85074 3.92983,2.29576 7.88994,4.38867 0.83813,-0.94391 1.4625,-2.01269 2.06522,-3.53521 0.86771,-6.50637 -1.20434,-2.99721 -4.36136,-4.8415 z" />
        <path
           inkscape:connector-curvature="0"
           id="path4333"
           style="font-style:normal;font-variant:normal;font-weight:bold;font-stretch:normal;font-size:39px;line-height:125%;font-family:Candara;-inkscape-font-specification:'Candara Bold';text-align:start;writing-mode:lr-tb;text-anchor:start;fill:#000000;fill-opacity:1"
           d="m 225.71195,508.36131 -3.53615,4.96281 q -1.02358,-0.72933 -6.80587,-2.72158 l -5.10532,7.16505 q 3.66041,4.80611 4.76154,5.5907 l -3.3262,4.66814 q -0.60484,-0.43097 -7.35084,-10.68585 -6.73496,-10.27038 -7.681,-10.94446 l 4.17708,-5.86231 q 0.884,0.62987 12.45887,3.94361 11.57042,3.28717 12.40789,3.88389 z m -13.86777,0.92154 q -9.89215,-3.05005 -10.54352,-3.51417 l -0.1768,0.24814 q 0.60484,0.43097 6.69795,8.91122 l 4.02237,-5.64519 z" />
        <path
           inkscape:connector-curvature="0"
           id="path4335"
           style="font-style:normal;font-variant:normal;font-weight:bold;font-stretch:normal;font-size:39px;line-height:125%;font-family:Candara;-inkscape-font-specification:'Candara Bold';text-align:start;writing-mode:lr-tb;text-anchor:start;fill:#000000;fill-opacity:1"
           d="m 231.25955,481.53379 q 4.09912,3.52787 4.89821,8.78825 0.79908,5.26039 -3.27536,9.99458 -1.83847,2.13616 -5.24142,5.73981 -4.19743,-3.93911 -9.66773,-8.64708 -5.2538,-4.52164 -9.12471,-7.52648 l 2.17387,-2.52586 q 0.53415,-0.62064 1.54673,-1.88476 1.01257,-1.26411 1.33555,-1.63939 4.48437,-5.21049 9.09478,-5.31275 4.62284,-0.11669 8.26008,3.01368 z m -2.77059,4.4745 q -2.77123,-2.38504 -6.0533,-2.39578 -3.29649,-0.0232 -6.15357,3.29655 -0.53415,0.62064 -1.33591,1.81495 3.01093,2.34008 6.15743,5.0481 3.44961,2.96888 6.96571,5.74373 0.99507,-0.77669 1.80251,-1.71487 2.67075,-3.1032 2.03056,-6.24199 -0.64219,-3.16565 -3.41343,-5.55069 z" />
        <path
           inkscape:connector-curvature="0"
           id="path4338"
           style="font-style:normal;font-variant:normal;font-weight:bold;font-stretch:normal;font-size:39px;line-height:125%;font-family:Candara;-inkscape-font-specification:'Candara Bold';text-align:start;writing-mode:lr-tb;text-anchor:start;fill:#000000;fill-opacity:1"
           d="m 265.41326,467.52255 -3.50288,3.13908 q -0.52106,-0.58145 -9.40288,-2.64574 -9.33308,-2.1969 -11.83208,-3.84416 l -0.22691,0.20334 q 3.13777,2.78807 5.38724,5.29823 3.13908,3.50288 7.84925,8.35945 l -3.48869,3.12638 q -3.72701,-4.58696 -8.44199,-9.84837 -4.63872,-5.17632 -8.10491,-8.6162 l 4.21197,-3.77452 q 0.67356,0.75163 8.87871,2.85978 8.72435,2.23098 11.05667,3.72077 l 0.21273,-0.19063 q -3.17443,-2.85751 -5.42389,-5.36766 -3.44409,-3.84324 -7.26465,-7.7071 l 3.54542,-3.17721 q 2.95324,3.69498 7.69364,8.98476 4.77852,5.33231 8.85325,9.4798 z" />
        <path
           inkscape:connector-curvature="0"
           id="path4340"
           style="font-style:normal;font-variant:normal;font-weight:bold;font-stretch:normal;font-size:39px;line-height:125%;font-family:Candara;-inkscape-font-specification:'Candara Bold';text-align:start;writing-mode:lr-tb;text-anchor:start;fill:#000000;fill-opacity:1"
           d="m 287.15812,451.3682 -4.92629,3.58685 q -0.73979,-1.01605 -5.59304,-4.73759 l -7.11233,5.1785 q 1.94919,5.71822 2.74503,6.81124 l -4.6338,3.37388 q -0.43714,-0.60039 -3.58673,-12.46425 -3.1342,-11.87507 -3.81794,-12.81414 l 5.81918,-4.23697 q 0.6389,0.8775 10.56768,7.68764 9.93296,6.78353 10.53824,7.61484 z m -13.44536,-3.51947 q -8.41627,-6.02692 -8.88705,-6.6735 l -0.24631,0.17935 q 0.43714,0.60039 3.52971,10.57419 l 5.60365,-4.08004 z" />
        <path
           inkscape:connector-curvature="0"
           id="path4342"
           style="font-style:normal;font-variant:normal;font-weight:bold;font-stretch:normal;font-size:39px;line-height:125%;font-family:Candara;-inkscape-font-specification:'Candara Bold';text-align:start;writing-mode:lr-tb;text-anchor:start;fill:#000000;fill-opacity:1"
           d="m 302.77896,436.98283 1.94168,3.9393 q -2.00247,1.92911 -4.26756,3.26154 -5.62991,3.31176 -10.40922,1.94752 -4.77256,-1.39031 -7.38914,-5.83843 -2.71314,-4.61226 -1.60283,-9.86082 1.12673,-5.25821 6.57608,-8.46376 2.00248,-1.17794 4.06192,-1.77078 l 1.65589,4.1295 q -2.30372,0.5156 -4.0764,1.55837 -3.33199,1.96002 -3.71142,5.03327 -0.38908,3.05682 1.38749,6.07695 1.81519,3.08578 5.06803,4.22121 3.26924,1.12577 6.74895,-0.92115 2.03531,-1.19726 4.01653,-3.31272 z" />
        <path
           inkscape:connector-curvature="0"
           id="path4344"
           style="font-style:normal;font-variant:normal;font-weight:bold;font-stretch:normal;font-size:39px;line-height:125%;font-family:Candara;-inkscape-font-specification:'Candara Bold';text-align:start;writing-mode:lr-tb;text-anchor:start;fill:#000000;fill-opacity:1"
           d="m 313.36699,436.88233 -4.82905,2.39234 q -2.39876,-5.39967 -5.535,-11.73034 -3.08552,-6.22829 -5.47144,-10.48672 l 4.82905,-2.39234 q 1.90845,4.40997 5.02779,10.70651 3.18696,6.43306 5.97865,11.51055 z" />
        <path
           inkscape:connector-curvature="0"
           id="path4346"
           style="font-style:normal;font-variant:normal;font-weight:bold;font-stretch:normal;font-size:39px;line-height:125%;font-family:Candara;-inkscape-font-specification:'Candara Bold';text-align:start;writing-mode:lr-tb;text-anchor:start;fill:#000000;fill-opacity:1"
           d="m 334.98818,414.00094 q 2.12309,5.44705 0.18438,10.33124 -1.93871,4.88419 -6.85348,6.79981 -4.68412,1.82572 -9.12173,-0.22574 -4.44453,-2.06919 -6.42239,-7.14365 -2.12309,-5.44706 -0.18438,-10.33125 1.93871,-4.88419 6.85348,-6.79981 4.68412,-1.82572 9.12174,0.22574 4.43761,2.05145 6.42238,7.14366 z m -4.69647,2.42324 q -1.44536,-3.70826 -4.24288,-5.27486 -2.79751,-1.56661 -5.58314,-0.48086 -2.59046,1.00968 -3.49429,4.03938 -0.90383,3.02971 0.47929,6.57828 1.43844,3.69052 4.24287,5.27486 2.81526,1.55969 5.58314,0.48086 2.59046,-1.00967 3.49429,-4.03938 0.89692,-3.04745 -0.47928,-6.57828 z" />
        <path
           inkscape:connector-curvature="0"
           id="path4348"
           style="font-style:normal;font-variant:normal;font-weight:bold;font-stretch:normal;font-size:39px;line-height:125%;font-family:Candara;-inkscape-font-specification:'Candara Bold';text-align:start;writing-mode:lr-tb;text-anchor:start;fill:#000000;fill-opacity:1"
           d="m 363.57679,419.87475 -4.56573,1.1305 q -0.18766,-0.75787 -7.06513,-6.74524 -7.21389,-6.31605 -8.64897,-8.94265 l -0.29576,0.0732 q 1.46447,3.93374 2.27459,7.20554 1.13051,4.56574 3.01411,11.06375 l -4.54725,1.12593 q -1.14158,-5.79893 -2.83963,-12.65678 -1.67058,-6.74693 -3.11955,-11.41038 l 5.48997,-1.35935 q 0.24258,0.97969 6.50178,6.68855 6.66023,6.06077 8.02191,8.47014 l 0.27727,-0.0687 q -1.46429,-4.01225 -2.27441,-7.28405 -1.24035,-5.00937 -2.80357,-10.21345 l 4.62119,-1.14424 q 0.8763,4.6483 2.5835,11.54311 1.72093,6.95027 3.37568,12.52405 z" />
        <path
           inkscape:connector-curvature="0"
           id="path4350"
           style="font-style:normal;font-variant:normal;font-weight:bold;font-stretch:normal;font-size:39px;line-height:125%;font-family:Candara;-inkscape-font-specification:'Candara Bold';text-align:start;writing-mode:lr-tb;text-anchor:start;fill:#000000;fill-opacity:1"
           d="m 390.45525,416.45624 -6.05377,0.6969 q -0.14373,-1.24859 -2.53604,-6.87716 l -8.74013,1.00615 q -1.11842,5.93688 -0.96379,7.28006 l -5.69433,0.65552 q -0.0849,-0.7378 3.0141,-12.61497 3.11795,-11.87934 2.9851,-13.03334 l 7.15101,-0.82322 q 0.12414,1.07833 5.41382,11.89395 5.30643,10.79453 5.42403,11.81611 z m -9.9706,-9.68254 q -4.35873,-9.38929 -4.4502,-10.18385 l -0.30269,0.0349 q 0.0849,0.7378 -2.13327,10.94173 l 6.88616,-0.79273 z" />
        <path
           inkscape:connector-curvature="0"
           id="path4352"
           style="font-style:normal;font-variant:normal;font-weight:bold;font-stretch:normal;font-size:39px;line-height:125%;font-family:Candara;-inkscape-font-specification:'Candara Bold';text-align:start;writing-mode:lr-tb;text-anchor:start;fill:#000000;fill-opacity:1"
           d="m 409.44533,412.39862 -0.14525,4.15162 -15.82468,0.027 q 0.2197,-5.16102 0.20635,-12.96863 -0.0122,-7.16014 -0.24872,-11.82527 l 5.35107,-0.009 q -0.22113,4.32314 -0.20831,11.82606 0.01,5.73192 -0.232,9.10295 5.25585,-0.009 11.10154,-0.30462 z" />
        <path
           inkscape:connector-curvature="0"
           id="path4354"
           style="font-style:normal;font-variant:normal;font-weight:bold;font-stretch:normal;font-size:39px;line-height:125%;font-family:Candara;-inkscape-font-specification:'Candara Bold';text-align:start;writing-mode:lr-tb;text-anchor:start;fill:#000000;fill-opacity:1"
           d="m 443.6637,407.59709 q -0.84947,5.34107 -4.90638,8.78369 -4.05692,3.44262 -10.22548,2.46154 -2.78338,-0.44269 -7.6372,-1.44606 1.1478,-5.6407 2.28143,-12.7684 1.08876,-6.8456 1.61299,-11.71778 l 3.29116,0.52344 q 0.80868,0.12862 2.41621,0.32645 1.60754,0.19782 2.09651,0.27559 6.78918,1.07979 9.29745,4.94953 2.52707,3.87274 1.77331,8.612 z m -5.26281,-0.008 q 0.57429,-3.61086 -1.14021,-6.40953 -1.71152,-2.81747 -6.03703,-3.50543 -0.80869,-0.12862 -2.2461,-0.18369 -0.41016,3.79123 -1.06222,7.89107 -0.71487,4.49477 -1.22972,8.94423 1.18355,0.43891 2.40598,0.63333 4.04341,0.64309 6.37831,-1.5501 2.35669,-2.20901 2.93099,-5.81988 z" />
        <path
           inkscape:connector-curvature="0"
           id="path4356"
           style="font-style:normal;font-variant:normal;font-weight:bold;font-stretch:normal;font-size:39px;line-height:125%;font-family:Candara;-inkscape-font-specification:'Candara Bold';text-align:start;writing-mode:lr-tb;text-anchor:start;fill:#000000;fill-opacity:1"
           d="m 462.52555,422.22937 -1.28759,3.9896 -15.59296,-4.4136 q 1.80448,-5.46616 3.77011,-12.41061 1.88784,-6.66962 2.98253,-11.44608 l 14.87837,4.21133 -1.33737,3.95571 q -5.41395,-1.84908 -9.88479,-3.11455 -0.53767,2.59878 -1.5179,6.06184 3.82953,1.08395 8.24748,2.11675 l -1.08395,3.82953 q -4.23574,-1.39684 -8.13856,-2.50153 -1.05283,3.71959 -1.82424,7.00427 5.02054,1.42106 10.78887,2.71734 z" />
        <path
           inkscape:connector-curvature="0"
           id="path4358"
           style="font-style:normal;font-variant:normal;font-weight:bold;font-stretch:normal;font-size:39px;line-height:125%;font-family:Candara;-inkscape-font-specification:'Candara Bold';text-align:start;writing-mode:lr-tb;text-anchor:start;fill:#000000;fill-opacity:1"
           d="m 481.7341,429.70571 -1.66266,3.80691 -14.72444,-5.79759 q 2.1033,-4.71812 4.96373,-11.98289 2.62322,-6.66232 4.11987,-11.08718 l 4.97902,1.96044 q -1.79632,3.93848 -4.54512,10.91974 -2.09998,5.33341 -3.56519,8.37896 4.89043,1.92556 10.43479,3.80161 z" />
        <path
           inkscape:connector-curvature="0"
           id="path4360"
           style="font-style:normal;font-variant:normal;font-weight:bold;font-stretch:normal;font-size:39px;line-height:125%;font-family:Candara;-inkscape-font-specification:'Candara Bold';text-align:start;writing-mode:lr-tb;text-anchor:start;fill:#000000;fill-opacity:1"
           d="m 508.20035,443.35663 -2.42967,3.65854 q -2.6742,-0.76157 -4.96456,-2.05008 -5.69271,-3.20261 -6.91543,-8.02008 -1.19679,-4.82473 1.33355,-9.32246 2.62371,-4.6637 7.71921,-6.3418 5.1121,-1.66876 10.62224,1.43114 2.02481,1.13912 3.57243,2.62157 l -2.73775,3.50707 q -1.60361,-1.73245 -3.39607,-2.74085 -3.36915,-1.89543 -6.21672,-0.67881 -2.83822,1.20003 -4.55624,4.25384 -1.75537,3.1202 -1.10205,6.50299 0.66991,3.39214 4.18843,5.37159 2.058,1.1578 4.88263,1.80734 z" />
        <path
           inkscape:connector-curvature="0"
           id="path4362"
           style="font-style:normal;font-variant:normal;font-weight:bold;font-stretch:normal;font-size:39px;line-height:125%;font-family:Candara;-inkscape-font-specification:'Candara Bold';text-align:start;writing-mode:lr-tb;text-anchor:start;fill:#000000;fill-opacity:1"
           d="m 524.98466,455.31606 -2.51671,3.35274 -13.30543,-9.25126 q 3.48631,-4.58046 7.60644,-10.50615 3.95706,-5.69116 6.54766,-9.85069 l 12.69567,8.82729 -2.55275,3.3045 q -4.51658,-3.51148 -8.33153,-6.16401 -1.35472,2.28198 -3.40935,5.237 3.26772,2.27205 7.10845,4.68738 l -2.27205,3.26772 q -3.54989,-2.70017 -6.88016,-5.01571 -2.20682,3.17392 -4.00592,6.02829 4.28401,2.97867 9.31568,6.0829 z" />
        <path
           inkscape:connector-curvature="0"
           id="path4364"
           style="font-style:normal;font-variant:normal;font-weight:bold;font-stretch:normal;font-size:39px;line-height:125%;font-family:Candara;-inkscape-font-specification:'Candara Bold';text-align:start;writing-mode:lr-tb;text-anchor:start;fill:#000000;fill-opacity:1"
           d="m 541.50486,474.56464 -3.57644,-3.05501 q 0.50711,-0.59366 1.37368,-9.67095 0.93807,-9.54215 2.23889,-12.23777 l -0.23167,-0.1979 q -2.3467,3.48023 -4.53592,6.0431 -3.05501,3.57644 -7.24309,8.88982 l -3.56196,-3.04264 q 4.05141,-4.30312 8.6401,-9.67502 4.51449,-5.28502 7.46362,-9.1773 l 4.30041,3.67343 q -0.65553,0.76742 -1.65541,9.17984 -1.05269,8.94335 -2.21957,11.45285 l 0.21719,0.18553 q 2.41066,-3.52578 4.59987,-6.08865 3.35185,-3.92395 6.67414,-8.22377 l 3.61988,3.09212 q -3.27009,3.41776 -7.88352,8.81861 -4.65053,5.4443 -8.2202,10.03371 z" />
        <path
           inkscape:connector-curvature="0"
           id="path4366"
           style="font-style:normal;font-variant:normal;font-weight:bold;font-stretch:normal;font-size:39px;line-height:125%;font-family:Candara;-inkscape-font-specification:'Candara Bold';text-align:start;writing-mode:lr-tb;text-anchor:start;fill:#000000;fill-opacity:1"
           d="m 575.27823,473.62624 -3.03341,2.753 q -2.44483,-2.93425 -4.79007,-5.35516 -2.61154,2.47689 -5.78471,5.55088 -4.92389,4.76999 -9.16861,9.17368 l -3.70999,-3.82969 q 4.52169,-4.03568 9.4866,-8.84542 3.11847,-3.02099 5.70522,-5.63294 -1.86825,-1.92853 -5.34658,-5.08118 l 3.06033,-2.75258 13.58122,14.01941 z" />
        <path
           inkscape:connector-curvature="0"
           id="path4368"
           style="font-style:normal;font-variant:normal;font-weight:bold;font-stretch:normal;font-size:39px;line-height:125%;font-family:Candara;-inkscape-font-specification:'Candara Bold';text-align:start;writing-mode:lr-tb;text-anchor:start;fill:#000000;fill-opacity:1"
           d="m 572.21912,508.81605 -3.56411,-4.36689 q 3.82583,-5.97383 4.30379,-7.88791 0.47797,-1.91408 -1.18367,-3.94999 -0.69838,-0.85568 -1.3513,-1.62555 -3.79152,3.09451 -7.54845,6.382 l -3.34736,-4.10134 q 4.61194,-3.44456 10.20333,-8.00806 5.3701,-4.38288 9.0051,-7.66918 l 2.08307,2.55227 q 0.36123,0.44259 1.54937,1.80801 1.20019,1.38017 2.1755,2.57516 5.52677,6.77164 0.89432,10.55248 -3.6735,2.99818 -8.27401,0.31289 l -0.2213,0.18062 q 0.80305,1.8272 -0.19973,4.51374 -0.98804,2.67451 -4.52455,8.73175 z m 9.05744,-16.61 q 2.93585,-2.39614 -0.14662,-6.17291 -1.13184,-1.38678 -2.20533,-2.28043 -2.15427,2.02862 -5.82777,5.02681 0.63275,0.83549 1.0903,1.39611 3.829,4.69146 7.08942,2.03042 z" />
        <path
           inkscape:connector-curvature="0"
           id="path4370"
           style="font-style:normal;font-variant:normal;font-weight:bold;font-stretch:normal;font-size:39px;line-height:125%;font-family:Candara;-inkscape-font-specification:'Candara Bold';text-align:start;writing-mode:lr-tb;text-anchor:start;fill:#000000;fill-opacity:1"
           d="m 597.54504,523.31925 q -4.85827,3.25196 -10.04634,2.41659 -5.18807,-0.83537 -8.12224,-5.21888 -2.79647,-4.17779 -1.75435,-8.95428 1.05794,-4.78709 5.58388,-7.8166 4.85826,-3.25196 10.04633,-2.41659 5.18807,0.83537 8.12225,5.21889 2.79647,4.17779 1.75435,8.95428 -1.04212,4.77649 -5.58388,7.81659 z m -3.38251,-4.0605 q 3.30742,-2.21387 4.23124,-5.28419 0.92383,-3.07032 -0.73922,-5.55484 -1.54654,-2.31045 -4.70006,-2.53695 -3.15353,-0.2265 -6.31852,1.89203 -3.29159,2.20328 -4.23124,5.2842 -0.91324,3.08615 0.73922,5.55484 1.54654,2.31044 4.70006,2.53695 3.16935,0.21591 6.31852,-1.89204 z" />
        <path
           inkscape:connector-curvature="0"
           id="path4372"
           style="font-style:normal;font-variant:normal;font-weight:bold;font-stretch:normal;font-size:39px;line-height:125%;font-family:Candara;-inkscape-font-specification:'Candara Bold';text-align:start;writing-mode:lr-tb;text-anchor:start;fill:#000000;fill-opacity:1"
           d="m 614.33264,554.34512 q -4.83808,2.41695 -9.99849,1.12068 -5.16042,-1.29626 -7.95182,-6.88391 -1.25953,-2.52125 -3.2678,-7.05261 5.25536,-2.34866 11.71181,-5.57409 6.20093,-3.09778 10.46842,-5.5064 l 1.48931,2.98121 q 0.36594,0.73253 1.14043,2.15502 0.77449,1.42248 0.99576,1.86541 3.07224,6.14981 1.38453,10.44143 -1.6792,4.30865 -5.97215,6.45326 z m -3.05585,-4.28474 q 3.27081,-1.63399 4.5493,-4.65683 1.29553,-3.03134 -0.66186,-6.94951 -0.36594,-0.73252 -1.15754,-1.93359 -3.322,1.87242 -7.03574,3.72768 -4.07148,2.03398 -7.98972,4.20427 0.33171,1.21794 0.88489,2.32525 1.82972,3.66264 4.97201,4.28541 3.16784,0.63131 6.43866,-1.00268 z" />
        <path
           inkscape:connector-curvature="0"
           id="path4374"
           style="font-style:normal;font-variant:normal;font-weight:bold;font-stretch:normal;font-size:39px;line-height:125%;font-family:Candara;-inkscape-font-specification:'Candara Bold';text-align:start;writing-mode:lr-tb;text-anchor:start;fill:#000000;fill-opacity:1"
           d="m 614.02423,577.79255 -3.94649,1.41418 -6.01746,-15.04695 q 5.43174,-1.90559 12.13302,-4.58552 6.43606,-2.57386 10.88828,-4.62097 l 5.74169,14.35737 -3.95003,1.35406 q -1.83841,-5.41759 -3.56374,-9.73187 -2.38702,1.15969 -5.72882,2.49612 1.47785,3.69543 3.35525,7.82584 l -3.69543,1.47785 q -1.47781,-4.20818 -2.98394,-7.97434 -3.58934,1.43542 -6.6624,2.82845 1.93747,4.84473 4.43007,10.20578 z" />
        <path
           inkscape:connector-curvature="0"
           id="path4376"
           style="font-style:normal;font-variant:normal;font-weight:bold;font-stretch:normal;font-size:39px;line-height:125%;font-family:Candara;-inkscape-font-specification:'Candara Bold';text-align:start;writing-mode:lr-tb;text-anchor:start;fill:#000000;fill-opacity:1"
           d="m 620.29208,597.3038 -4.00186,1.11453 -4.80188,-15.07857 q 4.98667,-1.34821 12.42615,-3.71737 6.82256,-2.17269 11.19876,-3.80615 l 1.62374,5.09878 q -4.18827,1.09396 -11.33744,3.37066 -5.46167,1.73931 -8.74847,2.5262 1.59484,5.00805 3.641,10.49192 z" />
        <path
           inkscape:connector-curvature="0"
           id="path4378"
           style="font-style:normal;font-variant:normal;font-weight:bold;font-stretch:normal;font-size:39px;line-height:125%;font-family:Candara;-inkscape-font-specification:'Candara Bold';text-align:start;writing-mode:lr-tb;text-anchor:start;fill:#000000;fill-opacity:1"
           d="m 640.72119,623.73038 q -4.45942,0.90972 -7.26404,-1.9776 -2.80082,-2.86866 -3.78286,-7.68259 -0.1789,-0.87696 -0.21771,-1.25775 -3.50783,0.7156 -9.21284,2.09321 l -1.06959,-5.24309 q 5.44184,-0.85748 12.75605,-2.34958 6.71712,-1.37029 11.53755,-2.60631 l 0.66231,3.24661 q 0.14084,0.69037 0.59648,2.63811 0.45564,1.94774 0.74873,3.38446 0.72321,3.54515 -0.3828,6.31678 -1.10601,2.77164 -4.37128,3.43775 z m -2.00827,-4.60459 q 3.99296,-0.81456 2.91195,-6.11362 -0.27025,-1.32477 -0.85083,-2.74171 -3.48462,0.92465 -7.94405,1.83437 0.0578,0.47408 0.18345,1.08982 1.38933,6.81041 5.69948,5.93114 z" />
        <path
           inkscape:connector-curvature="0"
           id="path4380"
           style="font-style:normal;font-variant:normal;font-weight:bold;font-stretch:normal;font-size:39px;line-height:125%;font-family:Candara;-inkscape-font-specification:'Candara Bold';text-align:start;writing-mode:lr-tb;text-anchor:start;fill:#000000;fill-opacity:1"
           d="m 629.4034,646.71938 -4.17742,0.35195 -1.94643,-16.08825 q 5.73908,-0.44497 12.90412,-1.31183 6.88146,-0.83255 11.71034,-1.66613 l 1.85722,15.35096 -4.16538,0.29294 q -0.38368,-5.70813 -0.94176,-10.32098 -2.60494,0.50698 -6.17801,0.93926 0.47803,3.95117 1.23035,8.42543 l -3.95117,0.47802 q -0.34616,-4.44666 -0.83334,-8.47345 -3.83774,0.4643 -7.16564,1.02038 0.62669,5.18 1.65712,11.0017 z" />
        <path
           inkscape:connector-curvature="0"
           id="path4382"
           style="font-style:normal;font-variant:normal;font-weight:bold;font-stretch:normal;font-size:39px;line-height:125%;font-family:Candara;-inkscape-font-specification:'Candara Bold';text-align:start;writing-mode:lr-tb;text-anchor:start;fill:#000000;fill-opacity:1"
           d="m 626.26156,671.48718 -0.19118,-5.63348 q 6.66241,-2.43635 8.20202,-3.66994 1.53961,-1.2336 1.45048,-3.86002 -0.0375,-1.10385 -0.0907,-2.1119 -4.89123,0.16599 -9.8718,0.5065 l -0.17956,-5.2909 q 5.75606,0.0524 12.9692,-0.19243 6.92765,-0.2351 11.81048,-0.64851 l 0.11174,3.29254 q 0.0194,0.57096 0.13783,2.37706 0.1191,1.82514 0.17142,3.36673 0.29646,8.73569 -5.6796,8.9385 -4.73897,0.16083 -6.77333,-4.76226 l -0.28548,0.01 q -0.46766,1.94032 -2.89273,3.47072 -2.40605,1.52975 -8.88877,4.20771 z m 17.26725,-7.73122 q 3.78737,-0.12853 3.62202,-5.00072 -0.0607,-1.78901 -0.37366,-3.15027 -2.94286,0.30946 -7.68183,0.47028 -0.003,1.04806 0.022,1.77127 0.20539,6.05218 4.41147,5.90944 z" />
        <path
           inkscape:connector-curvature="0"
           id="path4384"
           style="font-style:normal;font-variant:normal;font-weight:bold;font-stretch:normal;font-size:39px;line-height:125%;font-family:Candara;-inkscape-font-specification:'Candara Bold';text-align:start;writing-mode:lr-tb;text-anchor:start;fill:#000000;fill-opacity:1"
           d="m 649.31525,697.13595 q -6.36528,-0.67272 -12.74401,-1.17457 -12.60557,-0.99176 -11.79305,-11.31923 0.40178,-5.10677 3.39561,-7.46908 2.99382,-2.3623 10.22684,-1.79323 6.37873,0.50185 12.56207,0.81642 l -0.42269,5.37256 q -6.39728,-0.75164 -12.35835,-1.22064 -5.22069,-0.41074 -7.26164,0.76581 -2.04095,1.17655 -2.25902,3.94826 -0.22852,2.9046 1.58733,4.34639 1.83483,1.44328 7.11247,1.8585 5.79021,0.45556 12.35921,0.72406 l -0.40477,5.14475 z m 7.66463,-3.21734 q -0.22781,-0.0179 -2.36423,-2.72655 -2.13641,-2.70863 -2.42523,-2.92237 l 0.26139,-3.32225 q 0.30375,0.0239 2.51933,1.72635 2.23456,1.70396 2.44339,1.72039 l -0.43465,5.52443 z" />
      </g>
      <path
         style="fill:none;fill-opacity:1;stroke:#000000;stroke-width:8;stroke-linecap:round;stroke-linejoin:miter;stroke-miterlimit:4;stroke-dasharray:none;stroke-dashoffset:0;stroke-opacity:1"
         d="m 396.00326,374.88163 c -157.20569,0 -280.4323,155.0597 -280.4323,313.7497 0,158.69 138.3984,216.0595 295.60708,216.0595 157.20866,0 272.84489,-57.3695 272.84489,-216.0595 0,-158.69 -130.81399,-313.7497 -288.01967,-313.7497 z"
         id="path3266"
         inkscape:connector-curvature="0"
         sodipodi:nodetypes="sssss"
         inkscape:export-filename="C:\Documents and Settings\tinoco\Escritorio\logo_uncpxXx4.png"
         inkscape:export-xdpi="90"
         inkscape:export-ydpi="90" />
      <path
         inkscape:connector-curvature="0"
         id="path3268"
         d="m 174.40223,715.18583 c -1.82927,-11.2416 -2.77442,-23.275 -2.77442,-36.1362 0,-127.5606 105.17854,-252.203 231.57682,-252.203 l 10e-6,0 0,0 c 126.3983,0 225.47633,124.6424 225.47633,252.203 0,12.8623 -1.13139,24.8966 -3.2956,36.1391"
         style="fill:none;stroke:none"
         inkscape:export-filename="C:\Documents and Settings\tinoco\Escritorio\logo_uncpxXx4.png"
         inkscape:export-xdpi="90"
         inkscape:export-ydpi="90" />
      <g
         id="text3274"
         style="font-style:normal;font-variant:normal;font-weight:bold;font-stretch:normal;font-size:39px;line-height:125%;font-family:Candara;-inkscape-font-specification:'Candara Bold';text-align:start;letter-spacing:0px;word-spacing:0px;writing-mode:lr-tb;text-anchor:start;fill:none;fill-opacity:1;stroke:none"
         transform="matrix(1.022224,0,0,1.022224,-6.2622984,-1.9071324)">
        <path
           inkscape:connector-curvature="0"
           id="path4244"
           style="font-style:normal;font-variant:normal;font-weight:bold;font-stretch:normal;font-size:39px;line-height:125%;font-family:Candara;-inkscape-font-specification:'Candara Bold';text-align:start;writing-mode:lr-tb;text-anchor:start;fill:none;fill-opacity:1"
           d="m 144.37657,684.20676 q 6.38372,-0.46632 12.75039,-1.10317 12.58174,-1.25855 13.61284,9.04938 0.50986,5.09712 -2.01778,7.95273 -2.52764,2.85561 -9.74698,3.57776 -6.36667,0.63685 -12.50784,1.42339 l -0.5364,-5.3624 q 6.4292,-0.39431 12.379,-0.98947 5.21081,-0.52123 7.01087,-2.04095 1.80006,-1.51972 1.52333,-4.28619 -0.28999,-2.89911 -2.33267,-3.99616 -2.06163,-1.09516 -7.32928,-0.56824 -5.77927,0.5781 -12.29183,1.47834 l -0.51365,-5.13502 z" />
        <path
           inkscape:connector-curvature="0"
           id="path4246"
           style="font-style:normal;font-variant:normal;font-weight:bold;font-stretch:normal;font-size:39px;line-height:125%;font-family:Candara;-inkscape-font-specification:'Candara Bold';text-align:start;writing-mode:lr-tb;text-anchor:start;fill:none;fill-opacity:1"
           d="m 169.09527,656.20562 -0.0505,4.70334 q -0.78072,-0.008 -8.30136,5.14799 -7.92317,5.39962 -10.82571,6.13022 l -0.003,0.30467 q 4.17528,-0.43127 7.54569,-0.39508 4.70334,0.0505 11.46607,-0.14351 l -0.0503,4.6843 q -5.89991,-0.34901 -12.96445,-0.42486 -6.95028,-0.0746 -11.82806,0.15867 l 0.0607,-5.65544 q 1.00922,0.0108 8.10521,-4.61686 7.53722,-4.92766 10.21106,-5.64167 l 0.003,-0.28563 q -4.25125,0.41141 -7.62166,0.37522 -5.16035,-0.0554 -10.59014,0.15292 l 0.0511,-4.76047 q 4.71952,0.31729 11.82214,0.39355 7.15974,0.0769 12.97038,-0.12736 z" />
        <path
           inkscape:connector-curvature="0"
           id="path4248"
           style="font-style:normal;font-variant:normal;font-weight:bold;font-stretch:normal;font-size:39px;line-height:125%;font-family:Candara;-inkscape-font-specification:'Candara Bold';text-align:start;writing-mode:lr-tb;text-anchor:start;fill:none;fill-opacity:1"
           d="m 170.1233,645.38763 -0.47197,5.36845 q -5.85896,-0.7636 -12.89675,-1.38233 -6.92398,-0.60871 -11.80193,-0.78904 l 0.47196,-5.36846 q 4.75871,0.66688 11.75857,1.28227 7.15162,0.62873 12.94012,0.88911 z" />
        <path
           inkscape:connector-curvature="0"
           id="path4250"
           style="font-style:normal;font-variant:normal;font-weight:bold;font-stretch:normal;font-size:39px;line-height:125%;font-family:Candara;-inkscape-font-specification:'Candara Bold';text-align:start;writing-mode:lr-tb;text-anchor:start;fill:none;fill-opacity:1"
           d="m 149.11888,616.86528 q 1.54264,0.24211 11.58973,6.23318 10.05004,5.97225 11.55506,6.20846 l -0.81195,5.17348 q -1.44858,-0.22734 -12.90768,2.04146 -11.45614,2.24999 -12.82947,2.03445 l 0.93597,-5.96362 q 1.37332,0.21553 10.14061,-0.99147 8.76729,-1.20701 9.89605,-1.02986 l 0.0502,-0.31982 q -1.09114,-0.17124 -8.76613,-3.95879 -7.67205,-3.80636 -9.68501,-4.12229 l 0.83263,-5.30518 z" />
        <path
           inkscape:connector-curvature="0"
           id="path4252"
           style="font-style:normal;font-variant:normal;font-weight:bold;font-stretch:normal;font-size:39px;line-height:125%;font-family:Candara;-inkscape-font-specification:'Candara Bold';text-align:start;writing-mode:lr-tb;text-anchor:start;fill:none;fill-opacity:1"
           d="m 174.18233,600.93214 4.03232,1.1468 -3.86372,15.73824 q -5.52611,-1.61157 -12.53526,-3.3323 -6.73175,-1.65264 -11.54368,-2.57905 l 3.68664,-15.01698 4.00021,1.19774 q -1.65797,5.4755 -2.76578,9.98799 2.61605,0.44615 6.11138,1.30425 0.9489,-3.86521 1.82604,-8.31668 l 3.8652,0.9489 q -1.24734,4.28215 -2.21441,8.22134 3.75425,0.92166 7.06398,1.57733 1.24401,-5.06731 2.33708,-10.87758 z" />
        <path
           inkscape:connector-curvature="0"
           id="path4254"
           style="font-style:normal;font-variant:normal;font-weight:bold;font-stretch:normal;font-size:39px;line-height:125%;font-family:Candara;-inkscape-font-specification:'Candara Bold';text-align:start;writing-mode:lr-tb;text-anchor:start;fill:none;fill-opacity:1"
           d="m 185.83194,578.85847 -1.7974,5.34246 q -7.09369,-0.0559 -8.96823,0.55911 -1.87454,0.61503 -2.71251,3.10577 -0.3522,1.04684 -0.65598,2.0095 4.63856,1.56058 9.42202,2.98908 l -1.6881,5.01759 q -5.37182,-2.06847 -12.21235,-4.36987 -6.56979,-2.21031 -11.28729,-3.53626 l 1.05051,-3.12245 q 0.18217,-0.54147 0.70489,-2.27433 0.52879,-1.75091 1.02065,-3.21287 2.78718,-8.28443 8.45453,-6.37773 4.49417,1.512 4.67202,6.83589 l 0.27073,0.0911 q 1.11867,-1.65292 3.92652,-2.23523 2.7898,-0.58839 9.79999,-0.82175 z m -18.88208,1.18181 q -3.59172,-1.20838 -5.14623,3.41213 -0.5708,1.69659 -0.75532,3.08112 2.86437,0.74267 7.35854,2.25467 0.37008,-0.98054 0.60082,-1.6664 1.93099,-5.73954 -2.05781,-7.08152 z" />
        <path
           inkscape:connector-curvature="0"
           id="path4256"
           style="font-style:normal;font-variant:normal;font-weight:bold;font-stretch:normal;font-size:39px;line-height:125%;font-family:Candara;-inkscape-font-specification:'Candara Bold';text-align:start;writing-mode:lr-tb;text-anchor:start;fill:none;fill-opacity:1"
           d="m 187.29035,558.4124 q 6.84092,2.93969 2.61558,12.77242 -1.43601,3.34173 -3.47384,5.86522 l -3.53319,-2.5339 q 2.19775,-2.41332 3.2804,-4.93274 1.20294,-2.79935 1.18685,-4.25714 -0.0161,-1.45778 -1.29329,-2.00663 -1.3297,-0.57139 -2.7357,0.19238 -1.23336,0.65143 -3.83626,3.13936 -2.37763,2.25312 -4.35622,2.99883 -2.49638,0.93775 -5.08578,-0.17497 -3.0093,-1.29316 -3.75158,-4.24443 -0.73475,-2.96877 1.06214,-7.1503 1.47361,-3.42921 3.05092,-5.50806 l 3.60592,2.31643 q -1.87228,1.99355 -3.05267,4.74042 -1.77434,4.12904 0.43015,5.07636 1.17223,0.50373 2.32057,-0.14277 0.99074,-0.56915 3.33844,-2.8973 2.49286,-2.47304 4.58409,-3.33617 2.79163,-1.1425 5.64347,0.083 z" />
        <path
           inkscape:connector-curvature="0"
           id="path4258"
           style="font-style:normal;font-variant:normal;font-weight:bold;font-stretch:normal;font-size:39px;line-height:125%;font-family:Candara;-inkscape-font-specification:'Candara Bold';text-align:start;writing-mode:lr-tb;text-anchor:start;fill:none;fill-opacity:1"
           d="m 197.84828,552.49653 -2.40819,4.82117 q -5.17052,-2.85941 -11.49085,-6.01644 -6.21811,-3.10597 -10.68994,-5.06293 l 2.40819,-4.82117 q 4.18243,2.36586 10.46869,5.50587 6.42255,3.20808 11.7121,5.5735 z" />
        <path
           inkscape:connector-curvature="0"
           id="path4260"
           style="font-style:normal;font-variant:normal;font-weight:bold;font-stretch:normal;font-size:39px;line-height:125%;font-family:Candara;-inkscape-font-specification:'Candara Bold';text-align:start;writing-mode:lr-tb;text-anchor:start;fill:none;fill-opacity:1"
           d="m 199.38612,522.76964 q 4.66975,2.72801 6.40739,7.75701 1.73764,5.02899 -1.41302,10.42223 -1.42164,2.43353 -4.11643,6.59339 -4.84085,-3.11467 -11.07267,-6.75522 -5.98518,-3.49647 -10.33585,-5.75137 l 1.68099,-2.87749 q 0.41305,-0.70704 1.1802,-2.1335 0.76715,-1.42645 1.0169,-1.85396 3.46765,-5.93585 7.98347,-6.87056 4.52543,-0.95116 8.66902,1.46947 z m -1.91531,4.90193 q -3.15702,-1.84429 -6.38686,-1.26104 -3.24629,0.57364 -5.45559,4.35549 -0.41305,0.70704 -0.98549,2.0267 3.38462,1.75671 6.96915,3.85074 3.92983,2.29576 7.88994,4.38867 0.83813,-0.94391 1.4625,-2.01269 2.06522,-3.53521 0.86771,-6.50637 -1.20434,-2.99721 -4.36136,-4.8415 z" />
        <path
           inkscape:connector-curvature="0"
           id="path4262"
           style="font-style:normal;font-variant:normal;font-weight:bold;font-stretch:normal;font-size:39px;line-height:125%;font-family:Candara;-inkscape-font-specification:'Candara Bold';text-align:start;writing-mode:lr-tb;text-anchor:start;fill:none;fill-opacity:1"
           d="m 225.71195,508.36131 -3.53615,4.96281 q -1.02358,-0.72933 -6.80587,-2.72158 l -5.10532,7.16505 q 3.66041,4.80611 4.76154,5.5907 l -3.3262,4.66814 q -0.60484,-0.43097 -7.35084,-10.68585 -6.73496,-10.27038 -7.681,-10.94446 l 4.17708,-5.86231 q 0.884,0.62987 12.45887,3.94361 11.57042,3.28717 12.40789,3.88389 z m -13.86777,0.92154 q -9.89215,-3.05005 -10.54352,-3.51417 l -0.1768,0.24814 q 0.60484,0.43097 6.69795,8.91122 l 4.02237,-5.64519 z" />
        <path
           inkscape:connector-curvature="0"
           id="path4264"
           style="font-style:normal;font-variant:normal;font-weight:bold;font-stretch:normal;font-size:39px;line-height:125%;font-family:Candara;-inkscape-font-specification:'Candara Bold';text-align:start;writing-mode:lr-tb;text-anchor:start;fill:none;fill-opacity:1"
           d="m 231.25955,481.53379 q 4.09912,3.52787 4.89821,8.78825 0.79908,5.26039 -3.27536,9.99458 -1.83847,2.13616 -5.24142,5.73981 -4.19743,-3.93911 -9.66773,-8.64708 -5.2538,-4.52164 -9.12471,-7.52648 l 2.17387,-2.52586 q 0.53415,-0.62064 1.54673,-1.88476 1.01257,-1.26411 1.33555,-1.63939 4.48437,-5.21049 9.09478,-5.31275 4.62284,-0.11669 8.26008,3.01368 z m -2.77059,4.4745 q -2.77123,-2.38504 -6.0533,-2.39578 -3.29649,-0.0232 -6.15357,3.29655 -0.53415,0.62064 -1.33591,1.81495 3.01093,2.34008 6.15743,5.0481 3.44961,2.96888 6.96571,5.74373 0.99507,-0.77669 1.80251,-1.71487 2.67075,-3.1032 2.03056,-6.24199 -0.64219,-3.16565 -3.41343,-5.55069 z" />
        <path
           inkscape:connector-curvature="0"
           id="path4266"
           style="font-style:normal;font-variant:normal;font-weight:bold;font-stretch:normal;font-size:39px;line-height:125%;font-family:Candara;-inkscape-font-specification:'Candara Bold';text-align:start;writing-mode:lr-tb;text-anchor:start;fill:none;fill-opacity:1"
           d="m 265.41326,467.52255 -3.50288,3.13908 q -0.52106,-0.58145 -9.40288,-2.64574 -9.33308,-2.1969 -11.83208,-3.84416 l -0.22691,0.20334 q 3.13777,2.78807 5.38724,5.29823 3.13908,3.50288 7.84925,8.35945 l -3.48869,3.12638 q -3.72701,-4.58696 -8.44199,-9.84837 -4.63872,-5.17632 -8.10491,-8.6162 l 4.21197,-3.77452 q 0.67356,0.75163 8.87871,2.85978 8.72435,2.23098 11.05667,3.72077 l 0.21273,-0.19063 q -3.17443,-2.85751 -5.42389,-5.36766 -3.44409,-3.84324 -7.26465,-7.7071 l 3.54542,-3.17721 q 2.95324,3.69498 7.69364,8.98476 4.77852,5.33231 8.85325,9.4798 z" />
        <path
           inkscape:connector-curvature="0"
           id="path4268"
           style="font-style:normal;font-variant:normal;font-weight:bold;font-stretch:normal;font-size:39px;line-height:125%;font-family:Candara;-inkscape-font-specification:'Candara Bold';text-align:start;writing-mode:lr-tb;text-anchor:start;fill:none;fill-opacity:1"
           d="m 287.15812,451.3682 -4.92629,3.58685 q -0.73979,-1.01605 -5.59304,-4.73759 l -7.11233,5.1785 q 1.94919,5.71822 2.74503,6.81124 l -4.6338,3.37388 q -0.43714,-0.60039 -3.58673,-12.46425 -3.1342,-11.87507 -3.81794,-12.81414 l 5.81918,-4.23697 q 0.6389,0.8775 10.56768,7.68764 9.93296,6.78353 10.53824,7.61484 z m -13.44536,-3.51947 q -8.41627,-6.02692 -8.88705,-6.6735 l -0.24631,0.17935 q 0.43714,0.60039 3.52971,10.57419 l 5.60365,-4.08004 z" />
        <path
           inkscape:connector-curvature="0"
           id="path4270"
           style="font-style:normal;font-variant:normal;font-weight:bold;font-stretch:normal;font-size:39px;line-height:125%;font-family:Candara;-inkscape-font-specification:'Candara Bold';text-align:start;writing-mode:lr-tb;text-anchor:start;fill:none;fill-opacity:1"
           d="m 302.77896,436.98283 1.94168,3.9393 q -2.00247,1.92911 -4.26756,3.26154 -5.62991,3.31176 -10.40922,1.94752 -4.77256,-1.39031 -7.38914,-5.83843 -2.71314,-4.61226 -1.60283,-9.86082 1.12673,-5.25821 6.57608,-8.46376 2.00248,-1.17794 4.06192,-1.77078 l 1.65589,4.1295 q -2.30372,0.5156 -4.0764,1.55837 -3.33199,1.96002 -3.71142,5.03327 -0.38908,3.05682 1.38749,6.07695 1.81519,3.08578 5.06803,4.22121 3.26924,1.12577 6.74895,-0.92115 2.03531,-1.19726 4.01653,-3.31272 z" />
        <path
           inkscape:connector-curvature="0"
           id="path4272"
           style="font-style:normal;font-variant:normal;font-weight:bold;font-stretch:normal;font-size:39px;line-height:125%;font-family:Candara;-inkscape-font-specification:'Candara Bold';text-align:start;writing-mode:lr-tb;text-anchor:start;fill:none;fill-opacity:1"
           d="m 313.36699,436.88233 -4.82905,2.39234 q -2.39876,-5.39967 -5.535,-11.73034 -3.08552,-6.22829 -5.47144,-10.48672 l 4.82905,-2.39234 q 1.90845,4.40997 5.02779,10.70651 3.18696,6.43306 5.97865,11.51055 z" />
        <path
           inkscape:connector-curvature="0"
           id="path4274"
           style="font-style:normal;font-variant:normal;font-weight:bold;font-stretch:normal;font-size:39px;line-height:125%;font-family:Candara;-inkscape-font-specification:'Candara Bold';text-align:start;writing-mode:lr-tb;text-anchor:start;fill:none;fill-opacity:1"
           d="m 334.98818,414.00094 q 2.12309,5.44705 0.18438,10.33124 -1.93871,4.88419 -6.85348,6.79981 -4.68412,1.82572 -9.12173,-0.22574 -4.44453,-2.06919 -6.42239,-7.14365 -2.12309,-5.44706 -0.18438,-10.33125 1.93871,-4.88419 6.85348,-6.79981 4.68412,-1.82572 9.12174,0.22574 4.43761,2.05145 6.42238,7.14366 z m -4.69647,2.42324 q -1.44536,-3.70826 -4.24288,-5.27486 -2.79751,-1.56661 -5.58314,-0.48086 -2.59046,1.00968 -3.49429,4.03938 -0.90383,3.02971 0.47929,6.57828 1.43844,3.69052 4.24287,5.27486 2.81526,1.55969 5.58314,0.48086 2.59046,-1.00967 3.49429,-4.03938 0.89692,-3.04745 -0.47928,-6.57828 z" />
        <path
           inkscape:connector-curvature="0"
           id="path4276"
           style="font-style:normal;font-variant:normal;font-weight:bold;font-stretch:normal;font-size:39px;line-height:125%;font-family:Candara;-inkscape-font-specification:'Candara Bold';text-align:start;writing-mode:lr-tb;text-anchor:start;fill:none;fill-opacity:1"
           d="m 363.57679,419.87475 -4.56573,1.1305 q -0.18766,-0.75787 -7.06513,-6.74524 -7.21389,-6.31605 -8.64897,-8.94265 l -0.29576,0.0732 q 1.46447,3.93374 2.27459,7.20554 1.13051,4.56574 3.01411,11.06375 l -4.54725,1.12593 q -1.14158,-5.79893 -2.83963,-12.65678 -1.67058,-6.74693 -3.11955,-11.41038 l 5.48997,-1.35935 q 0.24258,0.97969 6.50178,6.68855 6.66023,6.06077 8.02191,8.47014 l 0.27727,-0.0687 q -1.46429,-4.01225 -2.27441,-7.28405 -1.24035,-5.00937 -2.80357,-10.21345 l 4.62119,-1.14424 q 0.8763,4.6483 2.5835,11.54311 1.72093,6.95027 3.37568,12.52405 z" />
        <path
           inkscape:connector-curvature="0"
           id="path4278"
           style="font-style:normal;font-variant:normal;font-weight:bold;font-stretch:normal;font-size:39px;line-height:125%;font-family:Candara;-inkscape-font-specification:'Candara Bold';text-align:start;writing-mode:lr-tb;text-anchor:start;fill:none;fill-opacity:1"
           d="m 390.45525,416.45624 -6.05377,0.6969 q -0.14373,-1.24859 -2.53604,-6.87716 l -8.74013,1.00615 q -1.11842,5.93688 -0.96379,7.28006 l -5.69433,0.65552 q -0.0849,-0.7378 3.0141,-12.61497 3.11795,-11.87934 2.9851,-13.03334 l 7.15101,-0.82322 q 0.12414,1.07833 5.41382,11.89395 5.30643,10.79453 5.42403,11.81611 z m -9.9706,-9.68254 q -4.35873,-9.38929 -4.4502,-10.18385 l -0.30269,0.0349 q 0.0849,0.7378 -2.13327,10.94173 l 6.88616,-0.79273 z" />
        <path
           inkscape:connector-curvature="0"
           id="path4280"
           style="font-style:normal;font-variant:normal;font-weight:bold;font-stretch:normal;font-size:39px;line-height:125%;font-family:Candara;-inkscape-font-specification:'Candara Bold';text-align:start;writing-mode:lr-tb;text-anchor:start;fill:none;fill-opacity:1"
           d="m 409.44533,412.39862 -0.14525,4.15162 -15.82468,0.027 q 0.2197,-5.16102 0.20635,-12.96863 -0.0122,-7.16014 -0.24872,-11.82527 l 5.35107,-0.009 q -0.22113,4.32314 -0.20831,11.82606 0.01,5.73192 -0.232,9.10295 5.25585,-0.009 11.10154,-0.30462 z" />
        <path
           inkscape:connector-curvature="0"
           id="path4282"
           style="font-style:normal;font-variant:normal;font-weight:bold;font-stretch:normal;font-size:39px;line-height:125%;font-family:Candara;-inkscape-font-specification:'Candara Bold';text-align:start;writing-mode:lr-tb;text-anchor:start;fill:none;fill-opacity:1"
           d="m 443.6637,407.59709 q -0.84947,5.34107 -4.90638,8.78369 -4.05692,3.44262 -10.22548,2.46154 -2.78338,-0.44269 -7.6372,-1.44606 1.1478,-5.6407 2.28143,-12.7684 1.08876,-6.8456 1.61299,-11.71778 l 3.29116,0.52344 q 0.80868,0.12862 2.41621,0.32645 1.60754,0.19782 2.09651,0.27559 6.78918,1.07979 9.29745,4.94953 2.52707,3.87274 1.77331,8.612 z m -5.26281,-0.008 q 0.57429,-3.61086 -1.14021,-6.40953 -1.71152,-2.81747 -6.03703,-3.50543 -0.80869,-0.12862 -2.2461,-0.18369 -0.41016,3.79123 -1.06222,7.89107 -0.71487,4.49477 -1.22972,8.94423 1.18355,0.43891 2.40598,0.63333 4.04341,0.64309 6.37831,-1.5501 2.35669,-2.20901 2.93099,-5.81988 z" />
        <path
           inkscape:connector-curvature="0"
           id="path4284"
           style="font-style:normal;font-variant:normal;font-weight:bold;font-stretch:normal;font-size:39px;line-height:125%;font-family:Candara;-inkscape-font-specification:'Candara Bold';text-align:start;writing-mode:lr-tb;text-anchor:start;fill:none;fill-opacity:1"
           d="m 462.52555,422.22937 -1.28759,3.9896 -15.59296,-4.4136 q 1.80448,-5.46616 3.77011,-12.41061 1.88784,-6.66962 2.98253,-11.44608 l 14.87837,4.21133 -1.33737,3.95571 q -5.41395,-1.84908 -9.88479,-3.11455 -0.53767,2.59878 -1.5179,6.06184 3.82953,1.08395 8.24748,2.11675 l -1.08395,3.82953 q -4.23574,-1.39684 -8.13856,-2.50153 -1.05283,3.71959 -1.82424,7.00427 5.02054,1.42106 10.78887,2.71734 z" />
        <path
           inkscape:connector-curvature="0"
           id="path4286"
           style="font-style:normal;font-variant:normal;font-weight:bold;font-stretch:normal;font-size:39px;line-height:125%;font-family:Candara;-inkscape-font-specification:'Candara Bold';text-align:start;writing-mode:lr-tb;text-anchor:start;fill:none;fill-opacity:1"
           d="m 481.7341,429.70571 -1.66266,3.80691 -14.72444,-5.79759 q 2.1033,-4.71812 4.96373,-11.98289 2.62322,-6.66232 4.11987,-11.08718 l 4.97902,1.96044 q -1.79632,3.93848 -4.54512,10.91974 -2.09998,5.33341 -3.56519,8.37896 4.89043,1.92556 10.43479,3.80161 z" />
        <path
           inkscape:connector-curvature="0"
           id="path4288"
           style="font-style:normal;font-variant:normal;font-weight:bold;font-stretch:normal;font-size:39px;line-height:125%;font-family:Candara;-inkscape-font-specification:'Candara Bold';text-align:start;writing-mode:lr-tb;text-anchor:start;fill:none;fill-opacity:1"
           d="m 508.20035,443.35663 -2.42967,3.65854 q -2.6742,-0.76157 -4.96456,-2.05008 -5.69271,-3.20261 -6.91543,-8.02008 -1.19679,-4.82473 1.33355,-9.32246 2.62371,-4.6637 7.71921,-6.3418 5.1121,-1.66876 10.62224,1.43114 2.02481,1.13912 3.57243,2.62157 l -2.73775,3.50707 q -1.60361,-1.73245 -3.39607,-2.74085 -3.36915,-1.89543 -6.21672,-0.67881 -2.83822,1.20003 -4.55624,4.25384 -1.75537,3.1202 -1.10205,6.50299 0.66991,3.39214 4.18843,5.37159 2.058,1.1578 4.88263,1.80734 z" />
        <path
           inkscape:connector-curvature="0"
           id="path4290"
           style="font-style:normal;font-variant:normal;font-weight:bold;font-stretch:normal;font-size:39px;line-height:125%;font-family:Candara;-inkscape-font-specification:'Candara Bold';text-align:start;writing-mode:lr-tb;text-anchor:start;fill:none;fill-opacity:1"
           d="m 524.98466,455.31606 -2.51671,3.35274 -13.30543,-9.25126 q 3.48631,-4.58046 7.60644,-10.50615 3.95706,-5.69116 6.54766,-9.85069 l 12.69567,8.82729 -2.55275,3.3045 q -4.51658,-3.51148 -8.33153,-6.16401 -1.35472,2.28198 -3.40935,5.237 3.26772,2.27205 7.10845,4.68738 l -2.27205,3.26772 q -3.54989,-2.70017 -6.88016,-5.01571 -2.20682,3.17392 -4.00592,6.02829 4.28401,2.97867 9.31568,6.0829 z" />
        <path
           inkscape:connector-curvature="0"
           id="path4292"
           style="font-style:normal;font-variant:normal;font-weight:bold;font-stretch:normal;font-size:39px;line-height:125%;font-family:Candara;-inkscape-font-specification:'Candara Bold';text-align:start;writing-mode:lr-tb;text-anchor:start;fill:none;fill-opacity:1"
           d="m 541.50486,474.56464 -3.57644,-3.05501 q 0.50711,-0.59366 1.37368,-9.67095 0.93807,-9.54215 2.23889,-12.23777 l -0.23167,-0.1979 q -2.3467,3.48023 -4.53592,6.0431 -3.05501,3.57644 -7.24309,8.88982 l -3.56196,-3.04264 q 4.05141,-4.30312 8.6401,-9.67502 4.51449,-5.28502 7.46362,-9.1773 l 4.30041,3.67343 q -0.65553,0.76742 -1.65541,9.17984 -1.05269,8.94335 -2.21957,11.45285 l 0.21719,0.18553 q 2.41066,-3.52578 4.59987,-6.08865 3.35185,-3.92395 6.67414,-8.22377 l 3.61988,3.09212 q -3.27009,3.41776 -7.88352,8.81861 -4.65053,5.4443 -8.2202,10.03371 z" />
        <path
           inkscape:connector-curvature="0"
           id="path4294"
           style="font-style:normal;font-variant:normal;font-weight:bold;font-stretch:normal;font-size:39px;line-height:125%;font-family:Candara;-inkscape-font-specification:'Candara Bold';text-align:start;writing-mode:lr-tb;text-anchor:start;fill:none;fill-opacity:1"
           d="m 575.27823,473.62624 -3.03341,2.753 q -2.44483,-2.93425 -4.79007,-5.35516 -2.61154,2.47689 -5.78471,5.55088 -4.92389,4.76999 -9.16861,9.17368 l -3.70999,-3.82969 q 4.52169,-4.03568 9.4866,-8.84542 3.11847,-3.02099 5.70522,-5.63294 -1.86825,-1.92853 -5.34658,-5.08118 l 3.06033,-2.75258 13.58122,14.01941 z" />
        <path
           inkscape:connector-curvature="0"
           id="path4296"
           style="font-style:normal;font-variant:normal;font-weight:bold;font-stretch:normal;font-size:39px;line-height:125%;font-family:Candara;-inkscape-font-specification:'Candara Bold';text-align:start;writing-mode:lr-tb;text-anchor:start;fill:none;fill-opacity:1"
           d="m 572.21912,508.81605 -3.56411,-4.36689 q 3.82583,-5.97383 4.30379,-7.88791 0.47797,-1.91408 -1.18367,-3.94999 -0.69838,-0.85568 -1.3513,-1.62555 -3.79152,3.09451 -7.54845,6.382 l -3.34736,-4.10134 q 4.61194,-3.44456 10.20333,-8.00806 5.3701,-4.38288 9.0051,-7.66918 l 2.08307,2.55227 q 0.36123,0.44259 1.54937,1.80801 1.20019,1.38017 2.1755,2.57516 5.52677,6.77164 0.89432,10.55248 -3.6735,2.99818 -8.27401,0.31289 l -0.2213,0.18062 q 0.80305,1.8272 -0.19973,4.51374 -0.98804,2.67451 -4.52455,8.73175 z m 9.05744,-16.61 q 2.93585,-2.39614 -0.14662,-6.17291 -1.13184,-1.38678 -2.20533,-2.28043 -2.15427,2.02862 -5.82777,5.02681 0.63275,0.83549 1.0903,1.39611 3.829,4.69146 7.08942,2.03042 z" />
        <path
           inkscape:connector-curvature="0"
           id="path4298"
           style="font-style:normal;font-variant:normal;font-weight:bold;font-stretch:normal;font-size:39px;line-height:125%;font-family:Candara;-inkscape-font-specification:'Candara Bold';text-align:start;writing-mode:lr-tb;text-anchor:start;fill:none;fill-opacity:1"
           d="m 597.54504,523.31925 q -4.85827,3.25196 -10.04634,2.41659 -5.18807,-0.83537 -8.12224,-5.21888 -2.79647,-4.17779 -1.75435,-8.95428 1.05794,-4.78709 5.58388,-7.8166 4.85826,-3.25196 10.04633,-2.41659 5.18807,0.83537 8.12225,5.21889 2.79647,4.17779 1.75435,8.95428 -1.04212,4.77649 -5.58388,7.81659 z m -3.38251,-4.0605 q 3.30742,-2.21387 4.23124,-5.28419 0.92383,-3.07032 -0.73922,-5.55484 -1.54654,-2.31045 -4.70006,-2.53695 -3.15353,-0.2265 -6.31852,1.89203 -3.29159,2.20328 -4.23124,5.2842 -0.91324,3.08615 0.73922,5.55484 1.54654,2.31044 4.70006,2.53695 3.16935,0.21591 6.31852,-1.89204 z" />
        <path
           inkscape:connector-curvature="0"
           id="path4300"
           style="font-style:normal;font-variant:normal;font-weight:bold;font-stretch:normal;font-size:39px;line-height:125%;font-family:Candara;-inkscape-font-specification:'Candara Bold';text-align:start;writing-mode:lr-tb;text-anchor:start;fill:none;fill-opacity:1"
           d="m 614.33264,554.34512 q -4.83808,2.41695 -9.99849,1.12068 -5.16042,-1.29626 -7.95182,-6.88391 -1.25953,-2.52125 -3.2678,-7.05261 5.25536,-2.34866 11.71181,-5.57409 6.20093,-3.09778 10.46842,-5.5064 l 1.48931,2.98121 q 0.36594,0.73253 1.14043,2.15502 0.77449,1.42248 0.99576,1.86541 3.07224,6.14981 1.38453,10.44143 -1.6792,4.30865 -5.97215,6.45326 z m -3.05585,-4.28474 q 3.27081,-1.63399 4.5493,-4.65683 1.29553,-3.03134 -0.66186,-6.94951 -0.36594,-0.73252 -1.15754,-1.93359 -3.322,1.87242 -7.03574,3.72768 -4.07148,2.03398 -7.98972,4.20427 0.33171,1.21794 0.88489,2.32525 1.82972,3.66264 4.97201,4.28541 3.16784,0.63131 6.43866,-1.00268 z" />
        <path
           inkscape:connector-curvature="0"
           id="path4302"
           style="font-style:normal;font-variant:normal;font-weight:bold;font-stretch:normal;font-size:39px;line-height:125%;font-family:Candara;-inkscape-font-specification:'Candara Bold';text-align:start;writing-mode:lr-tb;text-anchor:start;fill:none;fill-opacity:1"
           d="m 614.02423,577.79255 -3.94649,1.41418 -6.01746,-15.04695 q 5.43174,-1.90559 12.13302,-4.58552 6.43606,-2.57386 10.88828,-4.62097 l 5.74169,14.35737 -3.95003,1.35406 q -1.83841,-5.41759 -3.56374,-9.73187 -2.38702,1.15969 -5.72882,2.49612 1.47785,3.69543 3.35525,7.82584 l -3.69543,1.47785 q -1.47781,-4.20818 -2.98394,-7.97434 -3.58934,1.43542 -6.6624,2.82845 1.93747,4.84473 4.43007,10.20578 z" />
        <path
           inkscape:connector-curvature="0"
           id="path4304"
           style="font-style:normal;font-variant:normal;font-weight:bold;font-stretch:normal;font-size:39px;line-height:125%;font-family:Candara;-inkscape-font-specification:'Candara Bold';text-align:start;writing-mode:lr-tb;text-anchor:start;fill:none;fill-opacity:1"
           d="m 620.29208,597.3038 -4.00186,1.11453 -4.80188,-15.07857 q 4.98667,-1.34821 12.42615,-3.71737 6.82256,-2.17269 11.19876,-3.80615 l 1.62374,5.09878 q -4.18827,1.09396 -11.33744,3.37066 -5.46167,1.73931 -8.74847,2.5262 1.59484,5.00805 3.641,10.49192 z" />
        <path
           inkscape:connector-curvature="0"
           id="path4306"
           style="font-style:normal;font-variant:normal;font-weight:bold;font-stretch:normal;font-size:39px;line-height:125%;font-family:Candara;-inkscape-font-specification:'Candara Bold';text-align:start;writing-mode:lr-tb;text-anchor:start;fill:none;fill-opacity:1"
           d="m 640.72119,623.73038 q -4.45942,0.90972 -7.26404,-1.9776 -2.80082,-2.86866 -3.78286,-7.68259 -0.1789,-0.87696 -0.21771,-1.25775 -3.50783,0.7156 -9.21284,2.09321 l -1.06959,-5.24309 q 5.44184,-0.85748 12.75605,-2.34958 6.71712,-1.37029 11.53755,-2.60631 l 0.66231,3.24661 q 0.14084,0.69037 0.59648,2.63811 0.45564,1.94774 0.74873,3.38446 0.72321,3.54515 -0.3828,6.31678 -1.10601,2.77164 -4.37128,3.43775 z m -2.00827,-4.60459 q 3.99296,-0.81456 2.91195,-6.11362 -0.27025,-1.32477 -0.85083,-2.74171 -3.48462,0.92465 -7.94405,1.83437 0.0578,0.47408 0.18345,1.08982 1.38933,6.81041 5.69948,5.93114 z" />
        <path
           inkscape:connector-curvature="0"
           id="path4308"
           style="font-style:normal;font-variant:normal;font-weight:bold;font-stretch:normal;font-size:39px;line-height:125%;font-family:Candara;-inkscape-font-specification:'Candara Bold';text-align:start;writing-mode:lr-tb;text-anchor:start;fill:none;fill-opacity:1"
           d="m 629.4034,646.71938 -4.17742,0.35195 -1.94643,-16.08825 q 5.73908,-0.44497 12.90412,-1.31183 6.88146,-0.83255 11.71034,-1.66613 l 1.85722,15.35096 -4.16538,0.29294 q -0.38368,-5.70813 -0.94176,-10.32098 -2.60494,0.50698 -6.17801,0.93926 0.47803,3.95117 1.23035,8.42543 l -3.95117,0.47802 q -0.34616,-4.44666 -0.83334,-8.47345 -3.83774,0.4643 -7.16564,1.02038 0.62669,5.18 1.65712,11.0017 z" />
        <path
           inkscape:connector-curvature="0"
           id="path4310"
           style="font-style:normal;font-variant:normal;font-weight:bold;font-stretch:normal;font-size:39px;line-height:125%;font-family:Candara;-inkscape-font-specification:'Candara Bold';text-align:start;writing-mode:lr-tb;text-anchor:start;fill:none;fill-opacity:1"
           d="m 626.26156,671.48718 -0.19118,-5.63348 q 6.66241,-2.43635 8.20202,-3.66994 1.53961,-1.2336 1.45048,-3.86002 -0.0375,-1.10385 -0.0907,-2.1119 -4.89123,0.16599 -9.8718,0.5065 l -0.17956,-5.2909 q 5.75606,0.0524 12.9692,-0.19243 6.92765,-0.2351 11.81048,-0.64851 l 0.11174,3.29254 q 0.0194,0.57096 0.13783,2.37706 0.1191,1.82514 0.17142,3.36673 0.29646,8.73569 -5.6796,8.9385 -4.73897,0.16083 -6.77333,-4.76226 l -0.28548,0.01 q -0.46766,1.94032 -2.89273,3.47072 -2.40605,1.52975 -8.88877,4.20771 z m 17.26725,-7.73122 q 3.78737,-0.12853 3.62202,-5.00072 -0.0607,-1.78901 -0.37366,-3.15027 -2.94286,0.30946 -7.68183,0.47028 -0.003,1.04806 0.022,1.77127 0.20539,6.05218 4.41147,5.90944 z" />
        <path
           inkscape:connector-curvature="0"
           id="path4312"
           style="font-style:normal;font-variant:normal;font-weight:bold;font-stretch:normal;font-size:39px;line-height:125%;font-family:Candara;-inkscape-font-specification:'Candara Bold';text-align:start;writing-mode:lr-tb;text-anchor:start;fill:none;fill-opacity:1"
           d="m 649.31525,697.13595 q -6.36528,-0.67272 -12.74401,-1.17457 -12.60557,-0.99176 -11.79305,-11.31923 0.40178,-5.10677 3.39561,-7.46908 2.99382,-2.3623 10.22684,-1.79323 6.37873,0.50185 12.56207,0.81642 l -0.42269,5.37256 q -6.39728,-0.75164 -12.35835,-1.22064 -5.22069,-0.41074 -7.26164,0.76581 -2.04095,1.17655 -2.25902,3.94826 -0.22852,2.9046 1.58733,4.34639 1.83483,1.44328 7.11247,1.8585 5.79021,0.45556 12.35921,0.72406 l -0.40477,5.14475 z m 7.66463,-3.21734 q -0.22781,-0.0179 -2.36423,-2.72655 -2.13641,-2.70863 -2.42523,-2.92237 l 0.26139,-3.32225 q 0.30375,0.0239 2.51933,1.72635 2.23456,1.70396 2.44339,1.72039 l -0.43465,5.52443 z" />
      </g>
      <g
         id="text3280"
         style="font-style:normal;font-variant:normal;font-weight:bold;font-stretch:normal;font-size:40px;line-height:125%;font-family:Calibri;-inkscape-font-specification:'Calibri Bold';text-align:start;letter-spacing:0px;word-spacing:0px;writing-mode:lr-tb;text-anchor:start;fill:#000000;fill-opacity:1;stroke:none"
         transform="matrix(1.1073591,0,0,1.1073591,-53.073876,-98.616092)">
        <path
           inkscape:connector-curvature="0"
           id="path4227"
           style="fill:#000000;fill-opacity:1"
           d="m 325.46257,881.10909 q -0.0346,0.19223 -0.19682,0.32179 -0.14301,0.13302 -0.44865,0.17724 -0.30563,0.0442 -0.79657,0.0154 -0.49094,-0.0288 -1.22139,-0.16028 -0.74968,-0.13492 -1.23908,-0.28253 -0.47018,-0.14416 -0.74122,-0.29216 -0.25182,-0.14455 -0.3587,-0.32254 -0.0877,-0.17454 -0.0531,-0.36676 l 1.8093,-10.05333 -9.30366,-1.67438 -1.80929,10.05333 q -0.0346,0.19223 -0.17761,0.32525 -0.14301,0.13302 -0.44864,0.17725 -0.30564,0.0442 -0.79658,0.0154 -0.49093,-0.0288 -1.24061,-0.16374 -0.73045,-0.13146 -1.21986,-0.27907 -0.47018,-0.14416 -0.74122,-0.29216 -0.27104,-0.148 -0.37792,-0.326 -0.0877,-0.17454 -0.0531,-0.36676 l 4.22744,-23.48981 q 0.0346,-0.19223 0.17761,-0.32525 0.16223,-0.12956 0.46786,-0.17378 0.30564,-0.0442 0.79658,-0.0154 0.51016,0.0323 1.24061,0.16374 0.74968,0.13492 1.21986,0.27907 0.47018,0.14416 0.74122,0.29216 0.27104,0.148 0.3587,0.32254 0.0877,0.17454 0.0531,0.36676 l -1.64324,9.13066 9.30366,1.67437 1.64324,-9.13066 q 0.0346,-0.19222 0.17761,-0.32524 0.16223,-0.12957 0.44864,-0.17725 0.30563,-0.0442 0.79657,-0.0154 0.51016,0.0323 1.25984,0.1672 0.73045,0.13146 1.20063,0.27561 0.47019,0.14416 0.74123,0.29216 0.27103,0.148 0.35869,0.32254 0.10688,0.178 0.0723,0.37022 l -4.22745,23.48981 z" />
        <path
           inkscape:connector-curvature="0"
           id="path4229"
           style="fill:#000000;fill-opacity:1"
           d="m 354.37759,875.9664 q -0.27253,2.30818 -1.16669,4.0513 -0.89415,1.74311 -2.36198,2.84815 -1.46782,1.10504 -3.48534,1.53551 -2.01752,0.43046 -4.53907,0.13273 -2.36637,-0.2794 -4.17913,-1.08344 -1.81046,-0.82344 -2.96804,-2.17947 -1.15757,-1.35603 -1.64515,-3.22295 -0.46589,-1.88404 -0.18191,-4.2892 l 1.80238,-15.26506 q 0.0229,-0.19397 0.15761,-0.3354 0.1347,-0.14143 0.43709,-0.20406 0.3218,-0.0603 0.81358,-0.0613 0.49179,-9.4e-4 1.24825,0.0884 0.73707,0.087 1.21511,0.20247 0.47804,0.11545 0.75754,0.24678 0.2795,0.13134 0.37755,0.30025 0.11746,0.1712 0.0946,0.36517 l -1.74971,14.81894 q -0.17634,1.49353 0.0617,2.64264 0.24028,1.12972 0.83442,1.92755 0.61354,0.80012 1.52046,1.28087 0.9286,0.46365 2.11179,0.60335 1.20258,0.14199 2.19652,-0.11432 0.99394,-0.25632 1.73587,-0.87673 0.74422,-0.6398 1.21474,-1.62659 0.4922,-1.0039 0.64794,-2.32286 l 1.78405,-15.10989 q 0.0229,-0.19396 0.15761,-0.33539 0.1347,-0.14144 0.4371,-0.20406 0.3024,-0.0626 0.79418,-0.0636 0.51118,10e-4 1.24825,0.0884 0.73706,0.087 1.19571,0.20018 0.47804,0.11545 0.75754,0.24678 0.2795,0.13134 0.37755,0.30025 0.0981,0.16892 0.0752,0.36288 l -1.77719,15.0517 z" />
        <path
           inkscape:connector-curvature="0"
           id="path4231"
           style="fill:#000000;fill-opacity:1"
           d="m 381.52298,885.38825 q 0.1882,0.71687 0.22002,1.12996 0.0318,0.4131 -0.19653,0.61353 -0.22708,0.18094 -0.77533,0.18439 -0.54953,0.0229 -1.50454,-0.0392 -0.99399,-0.0647 -1.55666,-0.1405 -0.54445,-0.055 -0.83172,-0.15201 -0.28601,-0.11649 -0.3928,-0.28002 -0.10679,-0.16353 -0.16825,-0.42198 l -1.36571,-5.17779 -9.47213,-0.6167 -1.91922,4.82692 q -0.0957,0.26778 -0.24484,0.4538 -0.12836,0.1678 -0.42833,0.2657 -0.2792,0.0797 -0.80797,0.0844 -0.50928,0.006 -1.34735,-0.0486 -0.89653,-0.0584 -1.39947,-0.14983 -0.50293,-0.0915 -0.68387,-0.31854 -0.17968,-0.24657 -0.0946,-0.65206 0.0851,-0.40548 0.36341,-1.0724 l 9.23323,-21.8682 q 0.13851,-0.32372 0.30712,-0.50847 0.16988,-0.20424 0.50755,-0.28012 0.35844,-0.0941 0.96389,-0.0743 0.60673,3.6e-4 1.60072,0.0651 1.14991,0.0749 1.82952,0.15826 0.68088,0.0639 1.04358,0.20495 0.38345,0.12283 0.52542,0.34737 0.16145,0.22581 0.25428,0.60374 l 6.34054,22.86258 z m -10.37285,-19.24974 -0.0195,-10e-4 -4.26457,10.48728 7.15282,0.4657 -2.86876,-10.95171 z" />
        <path
           inkscape:connector-curvature="0"
           id="path4233"
           style="fill:#000000;fill-opacity:1"
           d="m 407.80314,886.06359 q -0.008,0.44915 -0.17046,0.79788 -0.16247,0.34873 -0.44003,0.57821 -0.25803,0.22982 -0.63115,0.3404 -0.35324,0.0914 -0.72428,0.0848 l -2.18715,-0.0389 q -0.68349,-0.0121 -1.18879,-0.15786 -0.48577,-0.14538 -0.90915,-0.50452 -0.40349,-0.37832 -0.7833,-0.99064 -0.37945,-0.63184 -0.8503,-1.61693 l -6.0781,-11.92629 q -0.52804,-1.06424 -1.07284,-2.28505 -0.54445,-1.24034 -0.97312,-2.40049 l -0.0391,-6.9e-4 q 0.0531,1.40741 0.0672,2.81414 0.0144,1.38719 -0.012,2.87133 l -0.23497,13.22057 q -0.003,0.19528 -0.12342,0.34942 -0.10041,0.15449 -0.37589,0.2668 -0.2556,0.0931 -0.70579,0.14373 -0.45019,0.0506 -1.1532,0.0381 -0.68349,-0.0122 -1.1316,-0.0787 -0.4481,-0.0666 -0.70023,-0.16872 -0.25179,-0.12168 -0.34665,-0.27964 -0.0949,-0.15797 -0.0914,-0.35325 l 0.40364,-22.71125 q 0.0163,-0.91783 0.55155,-1.35761 0.55512,-0.45895 1.33625,-0.44507 l 2.75347,0.0489 q 0.74207,0.0132 1.24737,0.15891 0.50565,0.12619 0.89101,0.42605 0.40489,0.30021 0.74702,0.83372 0.34249,0.51398 0.69999,1.28217 l 4.75693,9.32429 q 0.41469,0.84735 0.81021,1.67482 0.41539,0.80829 0.79137,1.63541 0.37634,0.8076 0.73349,1.59532 0.35715,0.78772 0.69478,1.57509 l 0.0195,3.5e-4 q -0.0343,-1.36801 -0.047,-2.85285 0.007,-1.48448 0.0308,-2.83193 l 0.21068,-11.85359 q 0.003,-0.19529 0.12341,-0.34943 0.11995,-0.15414 0.39542,-0.26645 0.27548,-0.11231 0.72532,-0.14339 0.45019,-0.0506 1.15321,-0.0381 0.66395,0.0118 1.11206,0.0784 0.44845,0.047 0.68071,0.16838 0.25178,0.12168 0.34665,0.27964 0.0949,0.15796 0.0914,0.35324 l -0.40364,22.71126 z" />
        <path
           inkscape:connector-curvature="0"
           id="path4235"
           style="fill:#000000;fill-opacity:1"
           d="m 432.66449,883.52456 q 0.0121,0.48813 -0.0183,0.84055 -0.0113,0.33241 -0.0636,0.58769 -0.0528,0.23575 -0.14606,0.41389 -0.0933,0.17814 -0.30227,0.41776 -0.20947,0.22008 -0.82559,0.58699 -0.59659,0.36642 -1.48655,0.72055 -0.87092,0.33413 -2.0176,0.57739 -1.12715,0.24278 -2.45487,0.2756 -2.59687,0.0642 -4.70586,-0.68468 -2.109,-0.74888 -3.6125,-2.29423 -1.50398,-1.56486 -2.34388,-3.92764 -0.83991,-2.36278 -0.91811,-5.52587 -0.0797,-3.22167 0.71767,-5.74215 0.79732,-2.52048 2.29782,-4.25731 1.5005,-1.73684 3.62656,-2.66858 2.14559,-0.93222 4.74245,-0.99642 1.05436,-0.0261 2.03497,0.12552 0.98061,0.15159 1.80791,0.4242 0.84635,0.2526 1.51938,0.60716 0.67303,0.35457 0.93362,0.62165 0.27963,0.24707 0.3816,0.42038 0.10197,0.17332 0.16731,0.44522 0.0653,0.27191 0.094,0.64241 0.0482,0.37001 0.0617,0.91672 0.0145,0.58576 -0.0144,0.99675 -0.0289,0.411 -0.12026,0.66724 -0.0914,0.25625 -0.22513,0.37678 -0.13378,0.12053 -0.30951,0.12487 -0.29288,0.007 -0.75017,-0.31358 -0.45777,-0.34036 -1.19034,-0.73253 -0.71353,-0.41217 -1.71753,-0.71949 -0.98495,-0.32731 -2.35172,-0.29352 -1.50345,0.0372 -2.67904,0.69142 -1.15655,0.63425 -1.96766,1.807 -0.79206,1.15274 -1.18155,2.78396 -0.38949,1.63122 -0.33929,3.66185 0.055,2.22588 0.54466,3.8549 0.50868,1.60902 1.37433,2.64262 0.88518,1.03313 2.08926,1.53086 1.22312,0.47773 2.72656,0.44056 1.36677,-0.0338 2.35484,-0.37081 0.98758,-0.35655 1.68084,-0.76444 0.71278,-0.40836 1.15414,-0.73187 0.46088,-0.32399 0.71471,-0.33027 0.19525,-0.005 0.31433,0.0704 0.11909,0.0752 0.20298,0.30758 0.0839,0.23237 0.13357,0.66096 0.0492,0.40907 0.0666,1.11198 z" />
        <path
           inkscape:connector-curvature="0"
           id="path4237"
           style="fill:#000000;fill-opacity:1"
           d="m 458.9843,883.72981 q 0.28314,0.68495 0.37037,1.08998 0.0872,0.40503 -0.112,0.63442 -0.20061,0.20991 -0.7434,0.28725 -0.54141,0.0968 -1.49608,0.16399 -0.99364,0.0699 -1.56139,0.0707 -0.5469,0.0189 -0.84463,-0.0385 -0.2991,-0.0769 -0.42696,-0.2245 -0.12786,-0.14764 -0.22361,-0.39544 l -2.0514,-4.94636 -9.46878,0.66613 -1.25085,5.04161 q -0.0587,0.27825 -0.18142,0.48267 -0.10456,0.18357 -0.38858,0.32103 -0.26591,0.11661 -0.78922,0.19258 -0.50381,0.0746 -1.34159,0.13354 -0.89622,0.063 -1.40689,0.0402 -0.51068,-0.0228 -0.72058,-0.22342 -0.21128,-0.22009 -0.18162,-0.63334 0.0297,-0.41326 0.2155,-1.11162 l 6.20027,-22.91347 q 0.0936,-0.33944 0.23576,-0.54524 0.14079,-0.22528 0.46515,-0.34599 0.34247,-0.14157 0.94507,-0.20354 0.60124,-0.0815 1.59488,-0.15136 1.1495,-0.0809 1.83415,-0.0899 0.68328,-0.0285 1.06168,0.0624 0.39652,0.07 0.56746,0.27336 0.19042,0.20197 0.33336,0.56393 l 9.36535,21.79886 z m -12.87368,-17.67531 -0.0195,0.001 -2.81156,10.96653 7.1503,-0.50302 -4.31925,-10.46488 z" />
        <path
           inkscape:connector-curvature="0"
           id="path4239"
           style="fill:#000000;fill-opacity:1"
           d="m 473.59589,874.27063 1.08239,8.82055 q 0.0238,0.19386 -0.0929,0.3656 -0.0973,0.16936 -0.37618,0.30197 -0.27889,0.13262 -0.77579,0.25262 -0.47751,0.11763 -1.21417,0.20803 -0.75605,0.0928 -1.24783,0.0941 -0.49178,10e-4 -0.81385,-0.0575 -0.30268,-0.0612 -0.43803,-0.20206 -0.13534,-0.14081 -0.15913,-0.33467 l -1.08239,-8.82056 -8.5397,-12.82489 q -0.45635,-0.67207 -0.62024,-1.04552 -0.14689,-0.39521 0.0426,-0.61523 0.20646,-0.24179 0.80266,-0.35431 0.59383,-0.1319 1.66005,-0.26274 0.89175,-0.10943 1.41992,-0.13489 0.54756,-0.0278 0.87201,0.0504 0.32207,0.0589 0.47918,0.21669 0.17649,0.15544 0.3455,0.41019 l 3.54804,5.82213 q 0.51654,0.8418 1.02557,1.7829 0.52843,0.93872 1.06875,1.97437 l 0.0388,-0.005 q 0.23987,-1.09203 0.50627,-2.12829 0.26639,-1.03625 0.52529,-1.9732 l 2.00106,-6.46373 q 0.0589,-0.32207 0.17316,-0.51319 0.1313,-0.21289 0.40782,-0.36489 0.27651,-0.152 0.77578,-0.25262 0.49928,-0.10062 1.33287,-0.20291 1.10499,-0.1356 1.71309,-0.15119 0.6251,-0.0373 0.86451,0.14973 0.25642,0.16531 0.19007,0.58668 -0.0664,0.42138 -0.32967,1.16209 l -5.18547,14.50914 z" />
        <path
           inkscape:connector-curvature="0"
           id="path4241"
           style="fill:#000000;fill-opacity:1"
           d="m 507.20121,865.23258 q 0.5812,3.09036 0.27187,5.67249 -0.30933,2.58213 -1.50443,4.57564 -1.19871,1.97432 -3.27483,3.29884 -2.06054,1.30171 -4.99733,1.85402 -2.89841,0.5451 -5.2082,0.20443 -2.29421,-0.36348 -4.02622,-1.64751 -1.73201,-1.28403 -2.91265,-3.5462 -1.16144,-2.26577 -1.77874,-5.54807 -0.56676,-3.01358 -0.25021,-5.55732 0.31294,-2.56293 1.51165,-4.53725 1.19871,-1.97433 3.25564,-3.29523 2.07612,-1.32451 5.03211,-1.88044 2.82162,-0.53066 5.11222,-0.18638 2.3098,0.34068 4.04181,1.62471 1.7512,1.28042 2.92823,3.52339 1.19262,2.22017 1.79908,5.44488 z m -5.24721,1.26507 q -0.36821,-1.95787 -0.97495,-3.49327 -0.61035,-1.5546 -1.57193,-2.5463 -0.94599,-1.01451 -2.28998,-1.39771 -1.34759,-0.40239 -3.19028,-0.0558 -1.86189,0.35017 -2.97598,1.29502 -1.1177,0.92565 -1.66529,2.24093 -0.54758,1.31527 -0.57788,2.95061 -0.0147,1.61253 0.31379,3.35926 0.38265,2.03464 0.99661,3.60843 0.61035,1.5546 1.55635,2.56911 0.94599,1.01451 2.28997,1.39771 1.34037,0.364 3.20226,0.0138 1.86189,-0.35017 2.97959,-1.27582 1.11771,-0.92566 1.66168,-2.26013 0.54398,-1.33447 0.55508,-2.9662 0.0267,-1.65453 -0.30904,-3.43964 z" />
      </g>
      <path
         inkscape:connector-curvature="0"
         style="fill:#000000;fill-opacity:1;stroke:none"
         d="m 261.90784,521.65283 0,28.0312 -12.125,6.0938 -0.6875,22.25 4.46875,5.0312 14.78125,0.3438 c 0,0 0.94407,47.4216 9.28125,68.75 3.87748,9.9195 16.40023,24.1499 27.6875,33.375 10.77716,8.8082 21.5625,13.3437 21.5625,13.3437 l 0.46875,27.0938 c 0,0 -8.91581,7.1699 -10.8125,12.5937 -3.0647,8.764 -2.14085,18.2458 2.71875,24.9063 0.81376,1.1153 4.14698,3.5071 6.84375,3.7812 17.77355,1.8066 41.27288,1.1075 49.65625,-0.2187 2.1495,-0.34 3.86564,-1.1989 4.84375,-1.6563 4.42391,-2.0688 5.99595,-4.9468 8.625,-9.0625 3.44307,-5.3901 6,-16.5937 6,-16.5937 l -13.5,0.5937 15.0625,-13.1562 -13.46875,1.0625 0.0625,-19.4063 c 0,0 11.93254,2.3581 15.3125,6.8125 4.23936,5.5871 5.21402,11 3.0625,20.8125 -2.29374,10.4613 -5.22307,19.7552 0.125,25.125 0.3486,0.3501 4.19215,2.3664 6.6875,2.75 12.438,1.9122 34.76683,1.8805 44.65625,0.3125 3.71621,-0.5892 5.31259,-2.7355 7.0625,-4.3437 2.65917,-2.4438 5.84375,-8.125 5.84375,-8.125 l 7.125,-15.25 -13.59375,0.8125 10.84375,-17.125 -15.9375,1.3125 c -1.95038,-22.8806 -9.18324,-32.4319 -24.625,-49.125 24.41127,9.1478 33.97173,1.2012 50.09375,-18.3438 l 0.0937,22.75 c 42.42575,-0.8173 46.86792,5.7292 64.375,-22.1875 0,0 -10.57269,5.7686 -16.5625,6.6563 -5.78972,0.8581 -17.5,1.4062 -17.5,1.4062 0,0 1.63943,5.2865 0,6.9063 -1.86413,1.8418 -6.04076,1.8091 -7.875,-0.062 -2.71806,-2.7735 0.125,-11.6875 0.125,-11.6875 25.36794,-1.686 33.76112,-2.201 42.875,-19.5938 0,0 -8.74487,4.7953 -13.5,6.1563 -7.02229,2.0099 -21.71875,2.8437 -21.71875,2.8437 0,0 1.3239,4.5734 -0.0937,5.9688 -1.82252,1.7938 -5.90182,1.8305 -7.6875,0 -2.66832,-2.7353 0.28125,-11.4688 0.28125,-11.4688 24.43334,-0.9294 34.49666,-3.8155 48.5,-21.9375 0,0 -12.38142,4.5175 -18.84375,5.6563 -6.66405,1.1743 -20.28125,1.125 -20.28125,1.125 0,0 2.02482,6.9081 -0.0937,9.0312 -1.76183,1.7656 -5.69389,1.8463 -7.46875,0.094 -3.21244,-3.172 0,-13.5625 0,-13.5625 23.3511,-1.0206 50.98431,-8.4142 51.21875,-24.3437 -19.52478,11.0411 -36.90375,9.2627 -57.9375,8.7812 -21.11756,-0.9974 -43.20429,15.1887 -50.21875,13.9375 -7.4987,-1.3375 -22.90058,-8.2524 -25.0625,-16 -0.0838,-0.3003 -0.125,-6.7187 -0.125,-6.7187 27.58121,0.4381 36.05617,-5.7119 48.125,-16.875 0,0 -13.12872,1.8252 -18.75,1.4062 -4.54447,-0.3387 -12.67041,-2.8636 -11.75,-3.6562 2.95551,-2.5451 11.96875,-3.7813 11.96875,-3.7813 l 20.96875,-0.5937 c -2.90448,-13.386 -23.96855,-18.2434 -39.375,-21.9688 -6.71302,-26.5714 -43.25424,-29.8293 -61.1875,-12.875 5.00851,32.5617 -3.52919,50.3756 -44.3125,51.875 l -11,17.0938 14.40625,0 0.375,26.125 c -22.19705,-2.1301 -27.31715,-26.9221 -29.1875,-51.875 l 11.21875,-0.5625 3.8125,-4.4688 -1.03125,-25.0625 -11.71875,-5.5625 -0.75,-25.75 -42.4375,0 z m 185.25,6.0625 c 0,0 -7.25558,4.6002 -8.71875,8.3437 -1.47395,3.7711 0.78125,12.125 0.78125,12.125 10.68608,2.5443 20.45562,4.7091 29.53125,11.375 0,0 8.22428,-4.9477 9.375,-8.8125 2.08913,-6.5578 -2.52645,-16.2501 -12.40625,-19.1562 -8.24052,-1.9328 -19.125,5.5937 -19.125,5.5937 -1.6967,-3.6907 -0.16492,-5.2549 0.5625,-9.4687 z m -153.53125,0.4687 0.0312,4.2813 6.1875,-0.3125 0.1875,4.75 -5.125,0.094 0,4.0937 4.9375,-0.125 0.0937,5.125 -4.96875,0.062 -0.0625,5 -7.5625,-0.031 -0.0625,-5.0625 -4.90625,-0.062 0.0312,5.0625 -7.625,0.062 0,-5.125 -5,0 0.0312,-4.9062 5.0625,0 -0.0937,-2.7188 -5.21875,0.094 -0.0312,-5 6.65625,-0.25 -0.125,-4.7187 6.25,-0.094 0.0625,3.5312 5.0625,0 0,-3.5937 6.1875,-0.1563 z m 220.78125,5.0313 -12.6875,0.1875 c 1.17266,18.108 -2.26375,22.7412 7.1875,27.375 0,0 21.43763,2.8132 30.125,-0.094 7.14137,-2.3896 6.67618,-11.6681 6.8125,-26.9063 l -12.125,-0.1875 c 0,0 0.69849,18.0748 -1.03125,19.6875 -4.20848,2.4942 -14.65142,3.0321 -17.71875,-0.5625 -3.5306,-4.8173 -0.5625,-19.5 -0.5625,-19.5 z m 5.03125,0.4687 c 0,0 -0.60891,9.4014 1.3125,13.4375 0.86896,1.8254 5.35942,1.2548 6.71875,0.4063 2.20985,-1.3795 1.4375,-13.8438 1.4375,-13.8438 l -9.46875,0 z m -230.78125,1.6563 -7.0625,0.094 0.15625,6.5 6.9375,0.125 -0.0312,-6.7188 z m 62.5625,0.9687 c -2.01913,0.1039 -4.15121,0.6294 -6.34375,1.6563 -45.11278,21.1281 2.2298,67.8421 21.59375,32.1875 7.91294,-14.5701 -1.11606,-34.5706 -15.25,-33.8438 z m -2.40625,15.9688 c 4.46861,-0.2307 7.31426,6.126 4.8125,10.75 -6.12214,11.3154 -21.07544,-3.5135 -6.8125,-10.2188 0.6932,-0.3259 1.36162,-0.4983 2,-0.5312 z m 48.96875,0.3125 c 5.73654,-0.084 11.14992,1.1432 10.34375,3.8437 0.52352,3.553 -10.03125,4.3438 -10.03125,4.3438 0,0 -12.51647,0.2345 -12.59375,-4.1875 0.49614,-2.5517 6.54471,-3.9154 12.28125,-4 z m -132.375,5.25 36.15625,0 c 0,0 1.35479,0.3263 1.8125,0.8125 0.42392,0.4503 0.625,1.7187 0.625,1.7187 l -0.125,11.4688 c 0,0 -0.18761,1.3 -0.625,1.75 -0.52719,0.5423 -2.125,0.8437 -2.125,0.8437 l -35.625,0.25 c 0,0 -1.45564,-0.3743 -2,-0.8437 -0.58602,-0.5053 -1.1875,-1.9688 -1.1875,-1.9688 l 0.125,-11.1875 c 0,0 0.53599,-1.4063 1.0625,-1.9062 0.51195,-0.4861 1.90625,-0.9375 1.90625,-0.9375 z m 4.375,3.9375 c 0,0 -1.048,0.2694 -1.4375,0.5312 -0.40057,0.2693 -0.8125,1 -0.8125,1 l -0.125,6 c 0,0 0.49165,0.8216 0.9375,1.0938 0.41415,0.2529 1.53125,0.4375 1.53125,0.4375 l 27.125,-0.125 c 0,0 1.16142,-0.1454 1.5625,-0.4375 0.33277,-0.2424 0.5,-0.9688 0.5,-0.9688 l 0.125,-6.1562 c 0,0 -0.1775,-0.695 -0.5,-0.9375 -0.34824,-0.2619 -1.40625,-0.4375 -1.40625,-0.4375 l -27.5,0 z m 117.90625,2.3125 6.0625,0 -12.90625,23.6562 7.03125,-0.1562 11.375,-23.3125 5.875,-0.1875 -12.125,28.8125 -22,0 16.6875,-28.8125 z m 108.53125,0.75 c -15.55034,4.7725 -12.13801,22.0404 2.84375,29.5312 l 0,6.0625 43.40625,0.6875 -0.125,-4.9062 c 19.08756,-10.0252 16.48555,-27.7881 2.15625,-31.375 l -48.28125,0 z m 5.625,5.875 38.6875,0 c 0,0 1.4787,0.2951 1.96875,0.7812 0.45386,0.4503 0.6875,1.75 0.6875,1.75 l -0.125,11.4688 c 0,0 -0.25046,1.3 -0.71875,1.75 -0.56442,0.5423 -2.25,0.8125 -2.25,0.8125 l -38.15625,0.25 c 0,0 -1.54217,-0.3744 -2.125,-0.8438 -0.62742,-0.5053 -1.28125,-1.9687 -1.28125,-1.9687 l 0.125,-11.1875 c 0,0 0.59254,-1.3751 1.15625,-1.875 0.54812,-0.4861 2.03125,-0.9375 2.03125,-0.9375 z m 4.65625,4.1562 c 0,0 -1.13979,0.2007 -1.5625,0.4375 -0.43474,0.2436 -0.90625,0.9375 -0.90625,0.9375 l -0.0937,5.4375 c 0,0 0.51612,0.7226 1,0.9688 0.44947,0.2287 1.65625,0.4375 1.65625,0.4375 l 29.40625,-0.1563 c 0,0 1.31473,-0.1108 1.75,-0.375 0.36116,-0.2192 0.53125,-0.875 0.53125,-0.875 l 0.0937,-5.5625 c 0,0 -0.18124,-0.6556 -0.53125,-0.875 -0.37794,-0.2368 -1.53125,-0.375 -1.53125,-0.375 l -29.8125,0 z m -221.28125,13.2813 c 0,0 6.50881,32.9326 12.3125,47.1562 2.56917,6.2966 6.08588,12.3458 10.59375,17.4375 4.05276,4.5777 8.71277,9.1469 14.40625,11.375 2.27062,0.8886 7.28125,0.5625 7.28125,0.5625 l -0.0937,11.9375 c 0,0 -6.55797,-0.5303 -9.46875,-1.9062 -6.49064,-3.0681 -12.20482,-8.0173 -16.6875,-13.625 -4.93681,-6.1759 -9.82579,-18.582 -12.09375,-26.1563 -4.76042,-15.8982 -6.25,-46.7812 -6.25,-46.7812 z m 245.65625,93.75 -39.78125,0.1875 0,9.0937 c -7.05776,-0.031 -12.7095,-0.1864 -19.3125,-3.2187 1.27706,7.0432 7.13566,7.1971 11.75,12.6875 5.06859,35.5243 -14.0004,56.9877 18,57.0312 1.62639,1.7466 0.1875,6.8125 0.1875,6.8125 -19.08697,-12.2606 -35.09653,4.2558 -11,18.5625 0,0 -4.893,-4.082 -3.78125,-6.25 1.47389,-2.8741 4.1998,-0.5321 7.375,-1.125 2.28961,-0.4276 2.64624,-3.952 4.1875,-5.125 0.80546,-0.6131 3.03125,-0.1875 3.03125,-0.1875 -2.2193,14.7353 3.35551,18.987 14,25.9375 -3.42985,-11.8072 -6.74911,-22.5243 -3.59375,-35.2187 6.4304,7.4925 7.59958,13.2444 8.15625,26.7187 10.15431,-15.1303 20.12695,-54.0373 16.09375,-93.0312 l -4.9375,-1.3125 -0.375,-11.5625 z m -228.25,9.375 -12.6875,16.0312 c -41.81002,-5.9229 -54.81858,31.7033 -72.34375,23.8438 0,0 19.16603,14.4265 23.46875,11.375 46.98683,-33.3235 64.79224,-9.4784 28.375,32.625 -3.9439,4.5596 5.40625,22.0625 5.40625,22.0625 5.49107,-21.1815 44.45738,-35.2239 28.71875,-77.8125 l 13.28125,-17.875 -14.21875,-10.25 z m 199.28125,26.4375 c 4.24478,6.7646 9.7699,27.2835 0.75,30.5 -8.98029,-1.2669 -4.91246,-22.9565 -0.75,-30.5 z m -91.28125,14.5625 17.71875,12.7187 -17.78125,12.8438 0.0625,-6.375 10.03125,-6.5625 -10.03125,-6.625 0,-6 z m -79.21875,1.6875 18.75,12.4687 -18.65625,10.9375 0.0625,-5.125 9.71875,-6.2187 -9.78125,-6.75 -0.0937,-5.3125 z m -62.875,3.1875 c -4.89994,-0.011 -11.03087,3.36 -17.21875,12.5625 l -14.78125,21.9687 17.5625,-5.625 11.96875,-3.8437 c 18.64595,-5.9763 14.07386,-25.0371 2.46875,-25.0625 z"
         id="path4337"
         inkscape:export-filename="C:\Documents and Settings\tinoco\Escritorio\logo_uncpxXx4.png"
         inkscape:export-xdpi="90"
         inkscape:export-ydpi="90" />
    </g>
  </g>
</svg>
